# Wavefront Obj file
# 
# verts: 106 uv-s: 246
mtllib BoozeShelf.mtl

g default_0
#pivot 0.000000 0.000000 0.000000

v -14.717607 184.523682 -10.696455
v -14.717607 180.440643 -10.696456
v -80.808205 180.442520 -10.696456
v -80.808205 183.394730 -10.696456
v -13.224994 184.527374 -10.696455
v 52.865875 183.394730 -10.696456
v 52.865875 180.442520 -10.696456
v -13.224994 180.444290 -10.696456
v -14.669456 104.870712 -10.696468
v -14.669456 108.189728 -10.696468
v -13.271156 108.189728 -10.696468
v -13.271156 104.870712 -10.696468
v -13.152769 262.118530 -10.696404
v 52.864895 260.332733 -10.696404
v 52.782883 253.838882 -10.696404
v -13.152769 249.610321 -10.696404
v -14.791819 249.602997 -10.694904
v -80.731705 253.838699 -10.695657
v -80.809372 260.332733 -10.696404
v -14.791819 262.111206 -10.694904
v 52.867481 180.426407 27.389366
v 52.868420 108.466011 27.389322
v -13.269546 108.173599 27.389322
v -13.223346 180.428146 27.389366
v -14.790208 249.586899 27.390881
v -14.715957 184.507584 27.389376
v -80.806602 183.378632 27.389376
v -80.730095 253.822556 27.390137
v 52.867481 183.378632 27.389376
v -13.223346 184.511200 27.389376
v -13.151118 249.594223 27.389381
v 52.784538 253.822723 27.389385
v -14.667807 108.173599 27.389322
v -80.805840 108.466011 27.389322
v -80.806602 180.426407 27.389366
v -14.715957 180.424515 27.389366
v 113.453415 261.587036 -10.696404
v 106.632149 251.713623 -10.696404
v -136.657364 251.691422 -10.696404
v -143.457581 261.594604 -10.696404
v -136.475769 107.387901 -10.693919
v -136.432190 110.486328 -10.878530
v -80.807465 108.482124 -10.696468
v -80.809692 105.529922 -10.694968
v 52.866768 108.482124 -10.696468
v 52.870144 105.529922 -10.694968
v 107.878700 183.355209 -10.879828
v 107.868576 180.440720 -10.696456
v 111.092239 219.841980 -10.696412
v 106.438736 219.591202 -10.816411
v 112.535561 183.392899 -10.696456
v 111.082184 110.494728 -10.696468
v 106.442863 110.499191 -10.878530
v 107.672684 147.122406 -11.187336
v 112.309349 146.943832 -10.696464
v 116.277847 14.811159 -10.693635
v 112.806175 10.005685 -10.871346
v 107.870239 180.424637 27.389366
v 107.674286 147.106293 26.898453
v -137.383942 147.108765 26.898453
v -137.888168 180.428009 27.389366
v -141.384232 219.847504 -10.696412
v -136.730469 219.596725 -10.816411
v -137.831635 183.394653 -10.879828
v -142.538864 183.396606 -10.696456
v -141.082382 110.494728 -10.696468
v -142.022079 146.945679 -10.696464
v -137.385590 147.124863 -11.187336
v -142.806519 10.005685 -10.870934
v -146.278214 14.811159 -10.693635
v 106.498123 107.378075 -10.693919
v 123.828766 1.649259 -10.693636
v -153.829208 1.649259 -10.693636
v 106.444473 110.187866 27.207291
v -136.430527 110.255272 27.207291
v 52.871796 105.513840 27.390820
v 106.499763 107.361977 27.391869
v 106.638039 9.932441 27.220181
v -13.968657 104.854568 27.389322
v -136.635101 9.932441 27.220594
v -136.474121 107.371803 27.391909
v -80.808105 105.513840 27.390820
v -13.970642 262.098724 27.390137
v 112.537239 183.376770 27.389376
v 112.310974 146.927719 27.389366
v -141.080719 110.478638 27.389322
v -142.020462 146.929581 27.389366
v -137.771713 180.444168 -10.696456
v -147.125717 1.979403 27.389303
v -139.939209 14.505940 27.389303
v 52.866505 260.316620 27.389385
v 107.880341 183.339127 27.205997
v -80.807716 260.316620 27.389385
v -143.455902 261.578430 27.389385
v -137.888992 183.378555 27.205997
v 111.083786 110.478638 27.389322
v 109.942101 14.505940 27.389303
v 111.093887 219.825928 27.389381
v -142.537216 183.380508 27.389376
v -141.382614 219.831406 27.389381
v -136.655731 251.675323 27.389385
v -136.728836 219.580597 27.269375
v 106.440399 219.575119 27.269375
v 106.633774 251.697525 27.389385
v 117.128502 1.979403 27.389303
v 113.455048 261.570892 27.389385
# 106 positions

vt 0.248121 0.856637
vt 0.248121 0.849620
vt 0.361711 0.849623
vt 0.361711 0.854697
vt 0.245555 0.856644
vt 0.131964 0.854697
vt 0.131964 0.849623
vt 0.245555 0.849626
vt 0.248038 0.719737
vt 0.248038 0.725442
vt 0.245634 0.725442
vt 0.245634 0.719737
vt 0.245431 0.990000
vt 0.131966 0.986931
vt 0.132107 0.975770
vt 0.245431 0.968502
vt 0.248248 0.968489
vt 0.361579 0.975769
vt 0.361713 0.986931
vt 0.248248 0.989987
vt 0.531656 0.503936
vt 0.531654 0.380287
vt 0.645298 0.379784
vt 0.645219 0.503939
vt 0.466730 0.364099
vt 0.466603 0.252275
vt 0.580164 0.250335
vt 0.580033 0.371377
vt 0.748401 0.422875
vt 0.861962 0.424822
vt 0.861838 0.536652
vt 0.748543 0.543918
vt 0.047875 0.588096
vt 0.161520 0.588599
vt 0.161521 0.712248
vt 0.047958 0.712245
vt 0.027832 0.989086
vt 0.039556 0.972117
vt 0.457699 0.972079
vt 0.469387 0.989099
vt 0.457387 0.724063
vt 0.457312 0.729389
vt 0.361710 0.725944
vt 0.361713 0.720870
vt 0.131963 0.725944
vt 0.131957 0.720870
vt 0.037413 0.854629
vt 0.037431 0.849620
vt 0.031890 0.917339
vt 0.039888 0.916908
vt 0.029410 0.854694
vt 0.031908 0.729403
vt 0.039881 0.729411
vt 0.037768 0.792355
vt 0.029799 0.792048
vt 0.022978 0.564951
vt 0.028945 0.556692
vt 0.437145 0.503933
vt 0.437481 0.446682
vt 0.258737 0.654998
vt 0.259604 0.712251
vt 0.465823 0.917348
vt 0.457825 0.916917
vt 0.459717 0.854697
vt 0.467808 0.854700
vt 0.465304 0.729403
vt 0.466919 0.792052
vt 0.458951 0.792360
vt 0.468268 0.556692
vt 0.474235 0.564951
vt 0.039786 0.724047
vt 0.010000 0.542330
vt 0.487212 0.542330
vt 0.908790 0.461821
vt 0.974241 0.461818
vt 0.973928 0.369747
vt 0.908477 0.369750
vt 0.257099 0.591673
vt 0.102385 0.530205
vt 0.010238 0.533380
vt 0.010000 0.365970
vt 0.217235 0.529072
vt 0.428009 0.365970
vt 0.427733 0.533397
vt 0.332083 0.530205
vt 0.047875 0.889696
vt 0.069374 0.888288
vt 0.069361 0.891104
vt 0.900320 0.415561
vt 0.834831 0.415564
vt 0.834832 0.302179
vt 0.900322 0.302176
vt 0.864289 0.608592
vt 0.925760 0.583978
vt 0.990000 0.744072
vt 0.929616 0.769063
vt 0.324068 0.283002
vt 0.324040 0.217186
vt 0.261053 0.217186
vt 0.261081 0.283002
vt 0.271097 0.290836
vt 0.271125 0.356647
vt 0.208139 0.356647
vt 0.208111 0.290836
vt 0.782454 0.784172
vt 0.717002 0.782973
vt 0.782454 0.781769
vt 0.856085 0.989997
vt 0.790644 0.990000
vt 0.790644 0.876438
vt 0.856085 0.876435
vt 0.752981 0.318947
vt 0.687540 0.318950
vt 0.687540 0.205388
vt 0.752981 0.205385
vt 0.752981 0.413457
vt 0.687540 0.413460
vt 0.790644 0.778356
vt 0.856085 0.778557
vt 0.782451 0.668106
vt 0.717000 0.668109
vt 0.716998 0.572446
vt 0.782449 0.572443
vt 0.761185 0.415564
vt 0.826636 0.415561
vt 0.826949 0.319970
vt 0.761498 0.319973
vt 0.527017 0.243023
vt 0.466603 0.218108
vt 0.531024 0.057960
vt 0.592475 0.082627
vt 0.459180 0.290841
vt 0.458610 0.356647
vt 0.436964 0.356647
vt 0.436437 0.290841
vt 0.569707 0.766069
vt 0.635159 0.767474
vt 0.635158 0.652614
vt 0.569707 0.652616
vt 0.110142 0.774623
vt 0.110169 0.840074
vt 0.047902 0.840602
vt 0.047875 0.775151
vt 0.569707 0.882338
vt 0.635158 0.882335
vt 0.569710 0.768886
vt 0.908790 0.575480
vt 0.974241 0.575477
vt 0.826949 0.206311
vt 0.761498 0.206314
vt 0.782451 0.897837
vt 0.717000 0.897840
vt 0.569707 0.990000
vt 0.635158 0.989997
vt 0.864289 0.989901
vt 0.929733 0.990000
vt 0.930049 0.891913
vt 0.864604 0.891916
vt 0.198094 0.283002
vt 0.198066 0.217186
vt 0.032217 0.217186
vt 0.032745 0.282997
vt 0.387056 0.283002
vt 0.387028 0.217186
vt 0.258643 0.960542
vt 0.256187 0.895146
vt 0.367934 0.890994
vt 0.370390 0.956389
vt 0.258739 0.840605
vt 0.256187 0.775213
vt 0.367930 0.770804
vt 0.370482 0.836196
vt 0.145124 0.290836
vt 0.145153 0.356647
vt 0.082166 0.356647
vt 0.082138 0.290836
vt 0.014245 0.209356
vt 0.010000 0.144052
vt 0.133889 0.136053
vt 0.138133 0.201357
vt 0.834834 0.206014
vt 0.900323 0.206011
vt 0.384103 0.638290
vt 0.384076 0.572840
vt 0.328921 0.573046
vt 0.328949 0.638496
vt 0.151147 0.209356
vt 0.146770 0.144061
vt 0.270642 0.135706
vt 0.275018 0.201001
vt 0.103082 0.899088
vt 0.103109 0.964544
vt 0.047903 0.964750
vt 0.047875 0.899294
vt 0.561500 0.990000
vt 0.496061 0.978487
vt 0.496061 0.524425
vt 0.561500 0.512907
vt 0.973967 0.268257
vt 0.908477 0.268260
vt 0.908477 0.154881
vt 0.973967 0.154878
vt 0.173079 0.775153
vt 0.173614 0.840605
vt 0.643353 0.550789
vt 0.708804 0.561393
vt 0.708804 0.979401
vt 0.643353 0.990000
vt 0.782449 0.989997
vt 0.716998 0.990000
vt 0.010028 0.356647
vt 0.010000 0.290836
vt 0.332170 0.712251
vt 0.332143 0.646802
vt 0.268812 0.646271
vt 0.269209 0.711720
vt 0.459194 0.283002
vt 0.459167 0.217186
vt 0.635158 0.548491
vt 0.569707 0.548494
vt 0.790959 0.769063
vt 0.856403 0.769060
vt 0.856403 0.655494
vt 0.790959 0.655497
vt 0.930049 0.778347
vt 0.864604 0.778350
vt 0.165359 0.898979
vt 0.165386 0.964435
vt 0.973967 0.360853
vt 0.908477 0.360856
vt 0.394498 0.711722
vt 0.394471 0.646274
vt 0.010571 0.217186
vt 0.010000 0.282997
vt 0.266708 0.573155
vt 0.266736 0.638605
vt 0.678248 0.250335
vt 0.676254 0.312540
vt 0.656016 0.540266
vt 0.656348 0.485071
vt 0.676128 0.367687
vt 0.653873 0.422808
vt 0.459614 0.849626
vt 0.856088 0.560964
vt 0.790644 0.560966
vt 0.439595 0.383245
# 246 texture coordinates

vn -0.704450 0.702236 -0.103032
vn -0.733633 -0.671752 -0.102627
vn 0.000029 -0.996985 -0.077600
vn -0.009087 0.996966 -0.077304
vn 0.704478 0.702188 -0.103167
vn 0.009593 0.996962 -0.077294
vn -0.000088 -0.996985 -0.077600
vn 0.733661 -0.671723 -0.102615
vn -0.009679 -0.996278 -0.085655
vn -0.733804 0.673780 -0.086905
vn 0.733826 0.673748 -0.086967
vn 0.009679 -0.996277 -0.085661
vn 0.024875 0.952685 -0.302940
vn 0.004038 0.985444 -0.169951
vn 0.017290 -0.984584 -0.174056
vn 0.702081 -0.668797 -0.244526
vn -0.702058 -0.668810 -0.244556
vn -0.016869 -0.984608 -0.173964
vn -0.003884 0.985438 -0.169991
vn -0.025032 0.952641 -0.303064
vn -0.001974 -0.500770 -0.865578
vn -0.011229 0.469758 -0.882724
vn 0.453375 0.416514 -0.788015
vn 0.454023 -0.415492 -0.788182
vn -0.458947 -0.436961 -0.773584
vn -0.448849 0.447668 -0.773387
vn -0.003347 0.477692 -0.878521
vn -0.008211 -0.520573 -0.853778
vn 0.003573 0.477643 -0.878547
vn 0.448838 0.447636 -0.773412
vn 0.458962 -0.436977 -0.773567
vn 0.008458 -0.521840 -0.853001
vn -0.453396 0.416520 -0.788000
vn 0.011156 0.469743 -0.882733
vn 0.001936 -0.501271 -0.865288
vn -0.454039 -0.415495 -0.788170
vn 0.563390 0.810026 -0.162632
vn -0.490182 -0.768225 -0.411768
vn 0.475455 -0.777780 -0.411097
vn -0.548249 0.820094 -0.163917
vn -0.033115 -0.996050 -0.082384
vn 0.916393 0.352422 -0.189795
vn 0.017975 0.996926 -0.076256
vn -0.020531 -0.996816 -0.077054
vn -0.018054 0.996957 -0.075828
vn 0.020798 -0.996810 -0.077050
vn -0.794335 0.589918 -0.145012
vn -0.000161 -0.997046 -0.076814
vn 0.992103 -0.011418 -0.124904
vn -0.992592 -0.017969 -0.120156
vn 0.992773 0.016831 -0.118823
vn 0.997870 0.005948 -0.064967
vn -0.920311 0.342525 -0.188953
vn -0.992105 0.019485 -0.123886
vn 0.992667 -0.019794 -0.119248
vn 0.994597 0.089619 -0.052404
vn -0.377991 0.840936 -0.387234
vn -0.000024 -0.749464 -0.662045
vn -0.581950 0.013483 -0.813113
vn 0.568944 0.013288 -0.822269
vn -0.000021 -0.750799 -0.660530
vn -0.992182 -0.011440 -0.124274
vn 0.992560 -0.017363 -0.120514
vn 0.780683 0.607978 -0.144557
vn -0.992734 0.008946 -0.119999
vn -0.997857 0.008129 -0.064922
vn -0.992605 -0.019833 -0.119755
vn 0.992209 0.019408 -0.123063
vn 0.377975 0.840919 -0.387286
vn -0.994601 0.089623 -0.052321
vn 0.034188 -0.995975 -0.082853
vn 0.051296 -0.994725 -0.088827
vn -0.051298 -0.994725 -0.088827
vn -0.865501 0.320181 -0.385217
vn 0.858654 0.328649 -0.393324
vn 0.007377 -0.352662 -0.935722
vn 0.012745 -0.369310 -0.929219
vn -0.223569 0.587189 -0.777963
vn -0.000001 -0.152699 -0.988273
vn 0.224045 0.588037 -0.777185
vn -0.012335 -0.369025 -0.929338
vn -0.007313 -0.354134 -0.935166
vn 0.000028 1.000000 0.001052
vn 0.999861 0.016687 -0.000036
vn 0.999801 -0.019937 -0.000051
vn -0.998150 0.008192 0.060242
vn -0.999800 -0.019976 0.000035
vn 0.000097 -0.996920 -0.078421
vn -0.046366 -0.998783 0.016820
vn -0.992398 0.081416 0.092293
vn 0.004242 0.999991 0.000600
vn -0.698430 0.520108 -0.491613
vn -0.004089 0.999991 0.000548
vn -0.555766 0.831339 0.000376
vn 0.682758 0.532602 -0.500177
vn 0.998171 0.006019 0.060158
vn 0.992406 0.081416 0.092209
vn 0.999931 -0.011724 -0.000048
vn -0.999962 0.008743 0.000047
vn -0.999931 -0.011737 0.000038
vn 0.419855 -0.685904 -0.594355
vn 0.557367 -0.008524 -0.830223
vn -0.572583 -0.009165 -0.819795
vn -0.434612 -0.680170 -0.590323
vn 0.046367 -0.998783 0.016816
vn 0.571038 0.820923 0.000323
# 106 normals

usemtl defaultMat
f 1/1/1 2/2/2 3/3/3 4/4/4
f 5/5/5 6/6/6 7/7/7 8/8/8
f 9/9/9 10/10/10 11/11/11 12/12/12
f 8/8/8 2/2/2 1/1/1 5/5/5
f 13/13/13 14/14/14 15/15/15 16/16/16
f 17/17/17 18/18/18 19/19/19 20/20/20
f 8/8/8 11/11/11 10/10/10 2/2/2
f 21/21/21 22/22/22 23/23/23 24/24/24
f 25/25/25 26/26/26 27/27/27 28/28/28
f 29/29/29 30/30/30 31/31/31 32/32/32
f 33/33/33 34/34/34 35/35/35 36/36/36
f 37/37/37 38/38/38 15/15/15 14/14/14
f 19/19/19 18/18/18 39/39/39 40/40/40
f 41/41/41 42/42/42 43/43/43 44/44/44
f 43/43/43 10/10/10 9/9/9 44/44/44
f 12/12/12 11/11/11 45/45/45 46/46/46
f 47/47/47 48/48/48 7/7/7 6/6/6
f 49/49/49 50/50/50 38/38/38 37/37/37
f 51/51/51 47/47/47 50/50/50 49/49/49
f 52/52/52 53/53/53 54/54/54 55/55/55
f 56/56/56 57/57/57 53/53/53 52/52/52
f 58/58/58 59/59/59 21/21/21
f 60/60/60 61/61/61 35/35/35
f 62/62/62 63/63/63 64/64/64 65/65/65
f 40/40/40 39/39/39 63/63/63 62/62/62
f 42/42/42 66/66/66 67/67/67 68/68/68
f 69/69/69 70/70/70 66/66/66 42/42/42
f 53/53/53 71/71/71 46/46/46 45/45/45
f 72/72/72 57/57/57 56/56/56
f 73/73/73 69/69/69 57/57/57 72/72/72
f 70/70/70 69/69/69 73/73/73
f 20/20/20 13/13/13 16/16/16 17/17/17
f 5/5/5 1/1/1 17/17/17 16/16/16
f 45/74/45 22/75/22 74/76/74 53/77/53
f 35/35/35 34/34/34 75/78/75 60/60/60
f 76/79/76 77/80/77 78/81/78
f 79/82/79 76/79/76 78/81/78
f 78/81/78 80/83/80 79/82/79
f 80/83/80 81/84/81 82/85/82
f 80/83/80 82/85/82 79/82/79
f 83/86/83 25/87/25 31/88/31
f 17/89/17 25/90/25 28/91/28 18/92/18
f 57/93/57 78/94/78 74/95/74 53/96/53
f 51/97/51 84/98/84 85/99/85 55/100/55
f 66/101/66 86/102/86 87/103/87 67/104/67
f 12/105/12 79/106/79 9/107/9
f 2/108/2 36/109/36 35/110/35 3/111/3
f 7/112/7 21/113/21 24/114/24 8/115/8
f 48/116/48 58/117/58 21/113/21 7/112/7
f 3/111/3 35/110/35 61/118/61 88/119/88
f 44/120/44 82/121/82 81/122/81 41/123/41
f 9/107/9 79/106/79 82/121/82 44/120/44
f 42/124/42 75/125/75 34/126/34 43/127/43
f 42/128/42 75/129/75 80/130/80 69/131/69
f 73/132/73 89/133/89 90/134/90 70/135/70
f 70/135/70 90/134/90 86/102/86 66/101/66
f 13/136/13 83/137/83 91/138/91 14/139/14
f 54/140/54 59/141/59 92/142/92 47/143/47
f 19/144/19 93/145/93 83/137/83 20/146/20
f 11/147/11 23/148/23 22/75/22 45/74/45
f 43/127/43 34/126/34 33/149/33 10/150/10
f 46/151/46 76/152/76 79/106/79 12/105/12
f 20/146/20 83/137/83 13/136/13
f 40/153/40 94/154/94 93/145/93 19/144/19
f 64/155/64 95/156/95 27/157/27 4/158/4
f 52/159/52 96/160/96 97/161/97 56/162/56
f 49/163/49 98/164/98 84/98/84 51/97/51
f 1/165/1 26/166/26 25/167/25 17/168/17
f 55/55/55 54/54/54 47/47/47 51/51/51
f 16/169/16 31/170/31 30/171/30 5/172/5
f 65/173/65 99/174/99 100/175/100 62/176/62
f 64/64/64 68/68/68 67/67/67 65/65/65
f 10/177/10 33/178/33 36/179/36 2/180/2
f 18/92/18 28/91/28 101/181/101 39/182/39
f 39/183/39 101/184/101 102/185/102 63/186/63
f 8/187/8 24/188/24 23/189/23 11/190/11
f 50/191/50 103/192/103 104/193/104 38/194/38
f 72/195/72 105/196/105 89/197/89 73/198/73
f 15/199/15 32/200/32 31/201/31 16/202/16
f 55/100/55 85/99/85 96/160/96 52/159/52
f 53/203/53 74/204/74 59/141/59 54/140/54
f 69/205/69 80/206/80 78/207/78 57/208/57
f 71/209/71 77/210/77 76/152/76 46/151/46
f 62/176/62 100/175/100 94/211/94 40/212/40
f 68/213/68 60/214/60 75/215/75 42/216/42
f 37/217/37 106/218/106 98/164/98 49/163/49
f 67/104/67 87/103/87 99/174/99 65/173/65
f 14/139/14 91/138/91 106/219/106 37/220/37
f 5/221/5 30/222/30 29/223/29 6/224/6
f 4/158/4 27/157/27 26/225/26 1/226/1
f 47/227/47 92/228/92 103/192/103 50/191/50
f 38/229/38 104/230/104 32/200/32 15/199/15
f 64/231/64 95/232/95 60/214/60 68/213/68
f 56/162/56 97/161/97 105/233/105 72/234/72
f 63/186/63 102/185/102 95/235/95 64/236/64
f 27/27/27 95/237/95 102/238/102 28/28/28
f 104/239/104 103/240/103 32/32/32
f 28/28/28 102/238/102 101/241/101
f 103/240/103 92/242/92 29/29/29 32/32/32
f 4/4/4 3/3/3 88/243/88 64/64/64
f 6/224/6 29/223/29 92/244/92 47/245/47
f 21/21/21 59/59/59 74/246/74 22/22/22

# 102 faces
