# Wavefront Obj file
# 
# verts: 99 uv-s: 219
mtllib Window.mtl

g Cube.003_Cube.004
#pivot 0.000000 0.000000 0.000000

v -115.113998 5.884613 -40.017101
v 0.000000 5.884613 -40.017101
v 115.113998 5.884613 -40.017101
v 115.113998 -6.493985 -40.017101
v 115.113884 -6.493998 -8.965403
v 0.000000 -6.493998 -8.965403
v 0.000000 -6.493985 -40.017101
v 115.113884 5.884604 -8.965398
v 123.801086 -6.493998 -8.965403
v 123.801086 5.884604 -8.965398
v 123.801003 5.884595 15.845701
v 123.801003 -6.494004 15.845696
v 123.801086 -6.493985 -40.017101
v 123.801086 5.884613 -40.017101
v 115.113884 -6.494004 15.845696
v 115.113884 5.884595 15.845701
v 0.000000 5.884595 15.845701
v 0.000000 -6.494004 15.845696
v -115.113998 -6.493985 -40.017101
v -115.113884 -6.493998 -8.965403
v -115.113884 5.884604 -8.965398
v -123.801086 -6.493998 -8.965403
v -123.801003 -6.494004 15.845696
v -123.801003 5.884595 15.845701
v -123.801086 5.884604 -8.965398
v -123.801086 -6.493985 -40.017101
v -123.801086 5.884613 -40.017101
v -115.113884 -6.494004 15.845696
v -115.113884 5.884595 15.845701
# 29 positions

vt 0.794280 0.541140
vt 0.749161 0.541140
vt 0.749161 0.708404
vt 0.794280 0.708404
vt 0.005000 0.867169
vt 0.022986 0.867169
vt 0.022986 0.903220
vt 0.005000 0.903220
vt 0.005000 0.822050
vt 0.022986 0.822050
vt 0.017623 0.816540
vt 0.017623 0.798553
vt 0.005000 0.798553
vt 0.005000 0.816540
vt 0.794280 0.528517
vt 0.749161 0.528517
vt 0.713110 0.528517
vt 0.713110 0.541140
vt 0.352151 0.924938
vt 0.352151 0.942924
vt 0.184887 0.942924
vt 0.184887 0.924938
vt 0.364773 0.924938
vt 0.364773 0.942924
vt 0.139662 0.725875
vt 0.139662 0.558611
vt 0.220833 0.558611
vt 0.220833 0.725875
vt 0.184781 0.725875
vt 0.184887 0.798553
vt 0.184887 0.816540
vt 0.184781 0.738498
vt 0.220833 0.738498
vt 0.713110 0.708404
vt 0.794280 0.875668
vt 0.749161 0.875668
vt 0.995000 0.476811
vt 0.995000 0.440760
vt 0.977014 0.440760
vt 0.977014 0.476811
vt 0.995000 0.521930
vt 0.977014 0.521930
vt 0.352151 0.816540
vt 0.364773 0.816540
vt 0.364773 0.798553
vt 0.352151 0.798553
vt 0.749161 0.888291
vt 0.794280 0.888291
vt 0.713110 0.875668
vt 0.713110 0.888290
vt 0.017623 0.924938
vt 0.017623 0.942924
vt 0.005000 0.942924
vt 0.005000 0.924938
vt 0.139662 0.391347
vt 0.184781 0.391348
vt 0.220833 0.391348
vt 0.184781 0.378725
vt 0.220833 0.378725
# 59 texture coordinates

vn 0.000000 -0.928910 -0.370306
vn 0.000000 -1.000000 -0.000000
vn 0.818543 -0.574446 0.000001
vn 0.954698 0.297575 0.000002
vn 0.786866 0.552212 0.275508
vn 0.786866 -0.552212 0.275508
vn 0.797892 -0.559947 -0.223220
vn 0.963023 0.000000 -0.269417
vn 0.000000 0.000000 -1.000000
vn 0.000000 -0.894816 0.446436
vn -0.000000 0.894815 0.446436
vn 0.000000 0.976318 0.216342
vn -0.000000 1.000000 0.000000
vn 0.000000 0.976318 -0.216341
vn -0.000000 1.000000 0.000000
vn -0.818543 -0.574446 0.000001
vn -0.786866 -0.552212 0.275508
vn -0.786866 0.552212 0.275508
vn -0.954698 0.297575 0.000002
vn -0.797892 -0.559947 -0.223220
vn -0.963023 0.000000 -0.269417
vn 0.000000 0.000000 -1.000000
vn 0.000000 0.894815 0.446436
vn 0.000000 1.000000 0.000000
vn 0.000000 1.000000 0.000000
# 25 normals

usemtl Material.001
s 1
f 4/1/1 5/2/2 6/3/2 7/4/1
f 9/5/3 10/6/4 11/7/5 12/8/6
f 13/9/7 14/10/8 10/6/4 9/5/3
f 4/11/1 3/12/9 14/13/8 13/14/7
f 5/2/2 4/1/1 13/15/7 9/16/3
f 5/2/2 9/16/3 12/17/6 15/18/10
f 15/19/10 16/20/11 17/21/12 18/22/10
f 16/20/11 15/19/10 12/23/6 11/24/5
f 3/25/13 2/26/14 17/27/12 16/28/11 8/29/15
f 2/30/14 3/12/9 4/11/1 7/31/1
f 10/32/4 8/29/15 16/28/11 11/33/5
f 6/3/2 5/2/2 15/18/10 18/34/10
f 19/35/1 7/4/1 6/3/2 20/36/2
f 22/37/16 23/38/17 24/39/18 25/40/19
f 26/41/20 22/37/16 25/40/19 27/42/21
f 19/43/1 26/44/20 27/45/21 1/46/22
f 20/36/2 22/47/16 26/48/20 19/35/1
f 20/36/2 28/49/10 23/50/17 22/47/16
f 28/51/10 18/22/10 17/21/12 29/52/23
f 29/52/23 24/53/18 23/54/17 28/51/10
f 1/55/24 21/56/25 29/57/23 17/27/12 2/26/14
f 2/30/14 7/31/1 19/43/1 1/46/22
f 25/58/19 24/59/18 29/57/23 21/56/25
f 6/3/2 18/34/10 28/49/10 20/36/2

g Window
#pivot 0.000000 0.000000 0.000000

v 115.113998 196.899994 -40.017040
v 116.113113 213.265305 -40.017036
v 52.091496 291.654205 -40.016998
v 0.000000 308.370300 -40.016998
v -52.091496 291.654205 -40.016998
v -116.113113 213.265305 -40.017036
v -115.113998 196.899994 -40.017040
v -115.113998 5.884613 -40.017101
v 0.000000 5.884613 -40.017101
v 115.113998 5.884613 -40.017101
# 10 positions

vt 0.166970 0.006452
vt 0.143191 0.005000
vt 0.029289 0.098025
vt 0.005000 0.173716
vt 0.029289 0.249406
vt 0.143191 0.342432
vt 0.166970 0.340980
vt 0.444521 0.340980
vt 0.444521 0.173716
vt 0.444521 0.006452
# 10 texture coordinates

vn 0.000000 -0.000000 1.000000
vn 0.000000 -0.000000 1.000000
vn 0.000000 -0.000000 1.000000
vn 0.000000 -0.000000 1.000000
vn 0.000000 -0.000000 1.000000
vn 0.000000 -0.000000 1.000000
vn 0.000000 -0.000000 1.000000
vn 0.000000 -0.000000 1.000000
vn 0.000000 1.000000 0.000000
vn 0.000000 -0.000000 1.000000
# 10 normals

usemtl Material.001
s 2
f 30/60/26 31/61/27 32/62/28 33/63/29 34/64/30 35/65/31 36/66/32 37/67/33 38/68/34 39/69/35

g Cube.001
#pivot 0.000000 0.000000 0.000000

v 115.113998 196.899994 -40.017040
v 116.113113 213.265305 -40.017036
v 52.091496 291.654205 -40.016998
v 0.000000 308.370300 -40.016998
v -52.091496 291.654205 -40.016998
v -116.113113 213.265305 -40.017036
v -115.113998 196.899994 -40.017040
v -115.113998 5.884613 -40.017101
v 115.113998 5.884613 -40.017101
v 115.113884 5.884604 -8.965398
v 115.113884 196.899994 -8.965335
v 123.801086 5.884604 -8.965398
v 123.801086 5.884613 -40.017101
v 123.801086 196.899994 -40.017040
v 122.802002 218.808395 -40.017036
v 123.801086 196.899994 -8.965335
v 116.113113 213.265305 -8.965330
v 122.801903 218.808304 -8.965329
v 54.605888 299.969391 -8.965302
v 52.091496 291.654205 -8.965304
v 54.605888 299.969482 -40.016998
v 0.000000 316.685455 -40.016991
v 0.000000 316.685455 -8.965295
v 0.000000 308.370209 -8.965300
v -115.113884 196.899994 -8.965335
v -115.113884 5.884604 -8.965398
v -123.801086 5.884604 -8.965398
v -123.801086 5.884613 -40.017101
v -123.801086 196.899994 -40.017040
v -122.802002 218.808395 -40.017036
v -123.801086 196.899994 -8.965335
v -116.113113 213.265305 -8.965330
v -52.091496 291.654205 -8.965304
v -54.605888 299.969391 -8.965302
v -122.801903 218.808304 -8.965329
v -54.605888 299.969482 -40.016998
# 36 positions

vt 0.819791 0.315409
vt 0.829510 0.323463
vt 0.730419 0.441392
vt 0.726765 0.429310
vt 0.105543 0.371239
vt 0.109196 0.383322
vt 0.184887 0.359033
vt 0.184887 0.346951
vt 0.143110 0.918613
vt 0.143110 0.873494
vt 0.029209 0.873494
vt 0.029209 0.918613
vt 0.006452 0.489169
vt 0.016171 0.497223
vt 0.332371 0.867169
vt 0.332371 0.822050
vt 0.450300 0.822050
vt 0.450300 0.867169
vt 0.292481 0.346951
vt 0.292481 0.392070
vt 0.375459 0.392070
vt 0.375459 0.346951
vt 0.651075 0.465681
vt 0.651075 0.453599
vt 0.014078 0.312150
vt 0.014078 0.357269
vt 0.093570 0.357269
vt 0.093570 0.312150
vt 0.461009 0.306330
vt 0.554034 0.420232
vt 0.550381 0.432314
vt 0.451290 0.314384
vt 0.264231 0.371239
vt 0.260577 0.383322
vt 0.751168 0.894677
vt 0.865070 0.894677
vt 0.865070 0.939796
vt 0.751168 0.939796
vt 0.363321 0.489169
vt 0.353602 0.497223
vt 0.667629 0.476811
vt 0.549700 0.476811
vt 0.549700 0.521930
vt 0.667629 0.521930
vt 0.014078 0.005000
vt 0.026161 0.005000
vt 0.026161 0.050119
vt 0.014078 0.050119
vt 0.461703 0.398394
vt 0.378725 0.398395
vt 0.378725 0.443514
vt 0.461703 0.443514
vt 0.629725 0.444520
vt 0.629725 0.456603
vt 0.461243 0.346951
vt 0.381751 0.346951
vt 0.381751 0.392070
vt 0.461243 0.392070
vt 0.444441 0.918613
vt 0.444441 0.873494
vt 0.166890 0.873494
vt 0.166890 0.918613
vt 0.005000 0.521002
vt 0.017623 0.521002
vt 0.005000 0.798553
vt 0.017623 0.798553
vt 0.022986 0.867169
vt 0.022986 0.822050
vt 0.300537 0.822050
vt 0.300537 0.867169
vt 0.818339 0.014078
vt 0.830961 0.014078
vt 0.830961 0.291629
vt 0.818339 0.291629
vt 0.449838 0.894677
vt 0.727389 0.894677
vt 0.727389 0.939796
vt 0.449838 0.939796
vt 0.364773 0.521002
vt 0.352151 0.521002
vt 0.364773 0.798553
vt 0.352151 0.798553
vt 0.977014 0.476811
vt 0.699463 0.476811
vt 0.699463 0.521930
vt 0.977014 0.521930
vt 0.462461 0.005000
vt 0.462461 0.282551
vt 0.449838 0.282551
vt 0.449838 0.005000
# 90 texture coordinates

vn 0.000000 -0.000000 1.000000
vn 0.000000 -0.000000 1.000000
vn 0.000000 -0.000000 1.000000
vn 0.000000 -0.000000 1.000000
vn 0.000000 0.000000 -1.000000
vn 0.000000 0.000000 -1.000000
vn 0.000000 0.000000 -1.000000
vn 0.000000 0.000000 -1.000000
vn -0.774513 -0.632558 0.000000
vn -0.774513 -0.632558 0.000000
vn -0.774513 -0.632558 0.000000
vn -0.774513 -0.632558 0.000000
vn -0.000000 0.000000 -1.000000
vn -0.000000 0.000000 -1.000000
vn -0.000000 0.000000 -1.000000
vn -0.000000 0.000000 -1.000000
vn 0.765608 0.643307 0.000003
vn 0.765608 0.643307 0.000003
vn 0.765608 0.643307 0.000003
vn 0.765608 0.643307 0.000003
vn 0.292713 0.956200 0.000001
vn 0.292713 0.956200 0.000001
vn 0.292713 0.956200 0.000001
vn 0.292713 0.956200 0.000001
vn -0.000000 -0.000000 1.000000
vn -0.000000 -0.000000 1.000000
vn -0.000000 -0.000000 1.000000
vn -0.000000 -0.000000 1.000000
vn -0.305551 -0.952176 -0.000001
vn -0.305551 -0.952176 -0.000001
vn -0.305551 -0.952176 -0.000001
vn 0.079560 -0.996830 -0.000001
vn -0.000000 -0.000000 1.000000
vn -0.000000 -0.000000 1.000000
vn -0.000000 -0.000000 1.000000
vn -0.000000 -0.000000 1.000000
vn -0.000000 0.000000 -1.000000
vn -0.000000 0.000000 -1.000000
vn -0.000000 0.000000 -1.000000
vn 0.774513 -0.632558 0.000000
vn 0.774513 -0.632558 0.000000
vn 0.774513 -0.632558 0.000000
vn 0.774513 -0.632558 0.000000
vn 0.000000 0.000000 -1.000000
vn 0.000000 0.000000 -1.000000
vn 0.000000 0.000000 -1.000000
vn 0.000000 0.000000 -1.000000
vn -0.765608 0.643307 0.000003
vn -0.765608 0.643307 0.000003
vn -0.765608 0.643307 0.000003
vn -0.765608 0.643307 0.000003
vn 1.000000 0.000000 0.000000
vn 1.000000 0.000000 0.000000
vn 1.000000 0.000000 0.000000
vn -0.292713 0.956200 0.000001
vn -0.292713 0.956200 0.000001
vn -0.292713 0.956200 0.000001
vn -0.292713 0.956200 0.000001
vn 0.000000 -0.000000 1.000000
vn 0.000000 -0.000000 1.000000
vn 0.000000 -0.000000 1.000000
vn 0.000000 -0.000000 1.000000
vn 0.305551 -0.952176 -0.000001
vn 0.305551 -0.952176 -0.000001
vn 0.305551 -0.952176 -0.000001
vn -1.000000 0.000000 -0.000004
vn -1.000000 0.000000 -0.000004
vn -0.999988 0.004818 -0.000004
vn -0.999988 0.004818 -0.000004
vn -0.000000 0.000000 -1.000000
vn -0.000000 0.000000 -1.000000
vn -0.000000 0.000000 -1.000000
vn -0.000000 0.000000 -1.000000
vn 0.000000 0.000000 -1.000000
vn 0.000000 0.000000 -1.000000
vn 0.000000 0.000000 -1.000000
vn 0.000000 0.000000 -1.000000
vn 1.000000 0.000000 0.000000
vn 1.000000 0.000000 0.000000
vn 0.999989 0.004692 0.000000
vn 0.999989 0.004692 0.000000
vn 0.000000 -0.000000 1.000000
vn 0.000000 -0.000000 1.000000
vn 0.000000 -0.000000 1.000000
vn 0.000000 -0.000000 1.000000
vn 0.998962 0.045558 0.000002
vn 0.998962 0.045558 0.000002
vn 0.000000 -0.000000 1.000000
vn 0.000000 -0.000000 1.000000
vn -0.998141 0.060941 -0.000002
vn -0.998141 0.060941 -0.000002
vn 1.000000 0.000000 -0.000004
vn 0.963226 0.004641 -0.268652
vn 0.999988 0.004818 -0.000004
vn 1.000000 0.000000 -0.000004
vn 0.000000 0.000000 -1.000000
vn 0.000000 0.000000 -1.000000
vn 0.000000 0.000000 -1.000000
vn 0.000000 0.000000 -1.000000
vn 0.000000 0.000000 -1.000000
vn -1.000000 0.000000 0.000000
vn -0.999989 0.004692 0.000000
vn -0.999989 0.004692 0.000000
vn -1.000000 0.000000 0.000000
vn 0.000000 -0.000000 1.000000
vn -0.000000 -0.000000 1.000000
vn -0.000000 -0.000000 1.000000
vn 0.000000 -0.000000 1.000000
vn -0.998962 0.045558 0.000002
vn -0.998962 0.045558 0.000002
vn -0.000000 -0.000000 1.000000
vn -0.000000 -0.000000 1.000000
vn 0.998141 0.060941 -0.000002
vn 0.998141 0.060941 -0.000002
# 114 normals

usemtl Material.001
s 3
f 56/70/36 57/71/37 58/72/38 59/73/39
s 4
f 60/74/40 42/75/41 43/76/42 61/77/43
s 5
f 41/78/44 56/79/45 59/80/46 42/81/47
s 6
f 54/82/48 41/83/49 42/75/50 60/74/51
s 7
f 57/84/52 54/85/53 60/86/54 58/87/55
s 8
f 58/88/56 60/89/57 61/90/58 62/91/59
s 9
f 59/73/60 58/72/61 62/92/62 63/93/63
s 10
f 42/94/64 59/95/65 63/96/66 43/97/67
s 11
f 71/98/68 72/99/69 73/100/70 74/101/71
s 12
f 75/102/72 61/77/73 43/76/42 44/103/74
s 13
f 45/104/75 44/105/76 72/106/77 71/107/78
s 14
f 69/108/79 75/102/80 44/103/81 45/109/82
s 15
f 74/110/83 73/111/84 75/112/85 69/113/86
s 16
f 43/114/67 61/115/87 62/116/88 63/117/89
s 17
f 73/118/90 62/119/91 61/120/92 75/121/93
s 18
f 72/99/94 63/122/95 62/123/96 73/100/97
s 19
f 44/124/98 43/125/67 63/126/99 72/127/100
s 20
f 48/128/101 49/129/102 50/130/103 40/131/104
f 40/131/104 50/130/103 56/79/125 41/78/126
s 21
f 53/132/105 40/133/106 41/83/107 54/82/108
s 22
f 52/134/109 48/135/110 40/133/111 53/132/112
s 23
f 51/136/113 52/137/114 53/138/115 55/139/116
f 55/139/116 53/138/115 54/85/121 57/84/122
s 24
f 49/140/117 51/141/118 55/142/119 50/143/120
f 50/143/120 55/142/119 57/71/123 56/70/124
s 25
f 47/144/127 46/145/128 64/146/129 65/147/130
f 46/145/128 45/104/148 71/107/149 64/146/129
s 26
f 68/148/131 69/108/132 45/109/133 46/149/128
f 67/150/134 68/148/131 46/149/128 47/151/135
s 27
f 66/152/136 70/153/137 68/154/138 67/155/139
f 70/153/137 74/110/144 69/113/145 68/154/138
s 28
f 65/156/140 64/157/141 70/158/142 66/159/143
f 64/157/141 71/98/146 74/101/147 70/158/142

g Cube.002
#pivot 0.000000 0.000000 0.000000

v -3.465900 6.013513 -40.009201
v 3.465900 6.013513 -40.009201
v 3.465900 6.013511 -34.267799
v 3.465900 308.841797 -40.009098
v -3.465900 308.841797 -40.009098
v -3.465900 308.841797 -34.267704
v 3.465900 308.841797 -34.267704
v 3.465900 155.932098 -40.009144
v 3.465900 155.932098 -34.267742
v 3.465900 149.635590 -34.267757
v 115.442703 149.635590 -34.267757
v 115.442703 155.932098 -34.267742
v 3.465900 149.635590 -40.009148
v 115.442703 149.635590 -40.009148
v 115.442703 155.932098 -40.009144
v -3.465900 6.013511 -34.267799
v -3.465900 155.932098 -40.009144
v -3.465900 155.932098 -34.267742
v -115.442703 155.932098 -34.267742
v -115.442703 149.635590 -34.267757
v -3.465900 149.635590 -34.267757
v -3.465900 149.635590 -40.009148
v -115.442703 149.635590 -40.009148
v -115.442703 155.932098 -40.009144
# 24 positions

vt 0.040577 0.046846
vt 0.040577 0.036774
vt 0.032235 0.036774
vt 0.032235 0.030203
vt 0.032235 0.020131
vt 0.040577 0.020131
vt 0.040577 0.030203
vt 0.688901 0.460430
vt 0.911083 0.460430
vt 0.911083 0.468772
vt 0.688901 0.468772
vt 0.543937 0.654057
vt 0.543937 0.644908
vt 0.706643 0.644908
vt 0.706643 0.654057
vt 0.023157 0.775145
vt 0.231844 0.775145
vt 0.231844 0.783488
vt 0.023157 0.783488
vt 0.047366 0.005000
vt 0.056515 0.005000
vt 0.056515 0.013342
vt 0.047366 0.013342
vt 0.467995 0.175271
vt 0.476337 0.175271
vt 0.476337 0.012565
vt 0.467995 0.012565
vt 0.242550 0.387803
vt 0.250892 0.387803
vt 0.250892 0.550509
vt 0.242550 0.550509
vt 0.032235 0.046846
vt 0.245339 0.753227
vt 0.245339 0.744884
vt 0.023157 0.744884
vt 0.023157 0.753227
vt 0.533865 0.654057
vt 0.371159 0.654057
vt 0.371159 0.644908
vt 0.533865 0.644908
vt 0.231844 0.768357
vt 0.231844 0.760015
vt 0.023157 0.760015
vt 0.023157 0.768357
vt 0.543937 0.436221
vt 0.543937 0.876239
vt 0.533865 0.876239
vt 0.533865 0.436221
vt 0.041384 0.013342
vt 0.041384 0.005000
vt 0.032235 0.005000
vt 0.032235 0.013342
vt 0.227419 0.383264
vt 0.227419 0.545969
vt 0.235762 0.545969
vt 0.235762 0.383264
vt 0.124531 0.547483
vt 0.124531 0.384777
vt 0.132874 0.384777
vt 0.132874 0.547483
# 60 texture coordinates

vn 0.000000 -1.000000 -0.000000
vn 0.000000 -1.000000 -0.000000
vn 0.000000 -1.000000 -0.000000
vn 0.000000 1.000000 0.000000
vn 0.000000 1.000000 0.000000
vn 0.000000 1.000000 0.000000
vn 0.000000 1.000000 0.000000
vn 1.000000 0.000000 0.000000
vn 1.000000 0.000000 0.000000
vn 1.000000 0.000000 0.000000
vn 1.000000 0.000000 0.000000
vn 0.000000 -0.000002 1.000000
vn 0.000000 -0.000002 1.000000
vn 0.000000 -0.000002 1.000000
vn 0.000000 -0.000002 1.000000
vn 1.000000 0.000000 0.000000
vn 1.000000 0.000000 0.000000
vn 1.000000 0.000000 0.000000
vn 1.000000 0.000000 0.000000
vn 1.000000 0.000000 0.000000
vn 1.000000 0.000000 0.000000
vn 1.000000 0.000000 0.000000
vn 1.000000 0.000000 0.000000
vn 0.000000 -1.000000 0.000000
vn 0.000000 -1.000000 0.000000
vn 0.000000 -1.000000 0.000000
vn 0.000000 -1.000000 0.000000
vn 0.000000 1.000000 0.000000
vn 0.000000 1.000000 0.000000
vn 0.000000 1.000000 0.000000
vn 0.000000 1.000000 0.000000
vn 0.000000 -1.000000 -0.000000
vn 0.000000 -1.000000 -0.000000
vn 0.000000 -1.000000 -0.000000
vn -1.000000 0.000000 0.000000
vn -1.000000 0.000000 0.000000
vn -1.000000 0.000000 0.000000
vn -1.000000 0.000000 0.000000
vn 0.000000 -0.000002 1.000000
vn 0.000000 -0.000002 1.000000
vn 0.000000 -0.000002 1.000000
vn 0.000000 -0.000002 1.000000
vn -1.000000 0.000000 0.000000
vn -1.000000 0.000000 0.000000
vn -1.000000 0.000000 0.000000
vn -1.000000 0.000000 0.000000
vn 0.000000 -0.000000 1.000000
vn 0.000000 -0.000000 1.000000
vn 0.000000 -0.000000 1.000000
vn 0.000000 -0.000000 1.000000
vn 0.000000 -0.000000 1.000000
vn 0.000000 -0.000000 1.000000
vn 0.000000 -0.000000 1.000000
vn 0.000000 -0.000000 1.000000
vn -1.000000 0.000000 0.000000
vn -1.000000 0.000000 0.000000
vn -1.000000 0.000000 0.000000
vn -1.000000 0.000000 0.000000
vn 0.000000 -1.000000 0.000000
vn 0.000000 -1.000000 0.000000
vn 0.000000 -1.000000 0.000000
vn 0.000000 -1.000000 0.000000
vn 0.000000 1.000000 0.000000
vn 0.000000 1.000000 0.000000
vn 0.000000 1.000000 0.000000
vn 0.000000 1.000000 0.000000
# 66 normals

usemtl Material.001
s 29
f 76/160/150 77/161/151 78/162/152
s 30
f 79/163/153 80/164/154 81/165/155 82/166/156
s 31
f 83/167/157 79/168/158 82/169/159 84/170/160
s 32
f 84/171/161 85/172/162 86/173/163 87/174/164
s 33
f 77/175/165 88/176/166 85/177/167 78/178/168
s 34
f 89/179/169 90/180/170 87/181/171 86/182/172
s 35
f 85/183/173 88/184/174 89/185/175 86/186/176
s 36
f 83/187/177 84/188/178 87/189/179 90/190/180
s 37
f 76/160/181 78/162/182 91/191/183
s 38
f 92/192/184 93/193/185 81/194/186 80/195/187
s 39
f 93/196/188 94/197/189 95/198/190 96/199/191
s 40
f 76/200/192 91/201/193 96/202/194 97/203/195
s 41
f 78/204/196 85/172/197 84/171/198 82/205/199 81/206/200 93/196/201 96/199/202 91/207/203
s 42
f 98/208/204 95/209/205 94/210/206 99/211/207
s 43
f 96/212/208 95/213/209 98/214/210 97/215/211
s 44
f 92/216/212 99/217/213 94/218/214 93/219/215

# 74 faces
