# Wavefront Obj file
# 
# verts: 120 uv-s: 256
mtllib FireCamp.mtl

g Stone5
#pivot 0.000000 0.000000 0.000000

v 0.874911 -0.689598 -2.588006
v 1.695920 -0.650563 -2.751820
v 1.680323 -0.948991 -2.735476
v 0.858758 -0.954921 -2.570095
v 0.621766 -0.824769 -1.856286
v 0.633658 -0.557578 -1.864038
v 2.297756 -0.506278 -2.388439
v 2.273188 -0.812322 -1.185437
v 2.284894 -0.838201 -2.385161
v 0.679826 -0.758042 -1.152443
v 2.248087 -0.631776 -1.248975
v 1.462277 -0.530031 -0.878611
v 0.741915 -0.586229 -1.171251
v 1.453331 -0.721028 -0.873089
v 1.302990 -0.282490 -2.362335
v 2.054499 -0.335062 -2.075605
v 1.808548 -0.306300 -1.526417
v 1.376205 -0.316323 -1.522088
# 18 positions

vt 0.679772 0.961102
vt 0.611411 0.964353
vt 0.612710 0.939504
vt 0.681117 0.939011
vt 0.344002 0.326643
vt 0.321754 0.325997
vt 0.332746 0.265717
vt 0.354838 0.267208
vt 0.676044 0.721799
vt 0.650562 0.621632
vt 0.648407 0.721526
vt 0.338446 0.385248
vt 0.561300 0.976366
vt 0.562370 0.948729
vt 0.137671 0.397126
vt 0.135580 0.382093
vt 0.070150 0.373621
vt 0.665595 0.626923
vt 0.010170 0.378301
vt 0.005000 0.392606
vt 0.324140 0.383682
vt 0.069405 0.389524
vt 0.130902 0.539666
vt 0.031007 0.538691
vt 0.005000 0.470426
vt 0.086866 0.401186
vt 0.028260 0.406021
vt 0.146300 0.420919
vt 0.160071 0.489326
vt 0.298971 0.474036
vt 0.322845 0.411462
vt 0.296797 0.391207
vt 0.391674 0.395343
vt 0.368573 0.431941
vt 0.422512 0.460773
vt 0.368933 0.467939
vt 0.340461 0.529767
vt 0.644128 0.995000
vt 0.280180 0.509679
vt 0.398145 0.520753
# 40 texture coordinates

vn -0.562862 0.488602 -0.666674
vn 0.115240 0.492911 -0.862414
vn 0.107262 -0.052555 -0.992841
vn -0.637658 -0.010573 -0.770247
vn -0.988798 0.040716 -0.143600
vn -0.631402 0.773559 -0.054197
vn 0.754274 0.526902 -0.391721
vn 0.857338 0.215430 0.467506
vn 0.924239 -0.049247 -0.378624
vn -0.802759 0.265736 0.533818
vn 0.656338 0.642869 0.394893
vn 0.012361 0.756202 0.654221
vn -0.444108 0.826994 0.344744
vn 0.018293 0.028039 0.999439
vn -0.019523 -0.997591 0.066568
vn -0.019523 -0.997591 0.066568
vn -0.019523 -0.997591 0.066568
vn -0.019523 -0.997591 0.066568
vn 0.013969 -0.995547 0.093229
vn 0.013969 -0.995547 0.093229
vn 0.013969 -0.995547 0.093229
vn 0.046122 -0.979919 0.193986
vn 0.046122 -0.979919 0.193986
vn 0.046122 -0.979919 0.193986
vn 0.058308 -0.976357 0.208154
vn 0.058308 -0.976357 0.208154
vn 0.058308 -0.976357 0.208154
vn -0.200465 0.920405 -0.335662
vn 0.357082 0.932937 -0.046062
vn 0.232138 0.947360 0.220500
vn -0.196492 0.967191 0.161036
# 31 normals

usemtl UV
s 1
f 1/1/1 2/2/2 3/3/3 4/4/4
f 5/5/5 6/6/6 1/7/1 4/8/4
f 7/9/7 8/10/8 9/11/9
f 5/5/5 10/12/10 6/6/6
f 2/2/2 7/13/7 9/14/9 3/3/3
f 8/15/8 11/16/11 12/17/12
f 7/9/7 11/18/11 8/10/8
f 12/17/12 13/19/13 10/20/10
f 10/12/10 13/21/13 6/6/6
f 15/30/28 16/31/29 7/32/7
f 16/31/29 11/33/11 7/32/7
f 17/34/30 12/35/12 11/33/11
f 18/36/31 15/30/28 6/37/6
f 17/34/30 16/31/29 15/30/28
f 2/2/2 1/1/1 15/38/28
f 15/30/28 1/39/1 6/37/6
f 18/36/31 13/40/13 12/35/12
f 6/37/6 13/40/13 18/36/31
f 17/34/30 18/36/31 12/35/12
f 15/30/28 18/36/31 17/34/30
f 16/31/29 17/34/30 11/33/11
f 7/13/7 2/2/2 15/38/28
s 2
f 14/22/14 12/17/12 10/20/10
f 14/22/14 8/15/8 12/17/12
s 3
f 9/23/15 8/24/16 14/25/17 5/26/18
s 4
f 14/25/19 10/27/20 5/26/21
s 5
f 5/26/22 4/28/23 3/29/24
s 6
f 5/26/25 3/29/26 9/23/27

g Stone6
#pivot 0.000000 0.000000 0.000000

v 3.111831 -0.628717 -0.203060
v 3.111832 -0.628717 1.157996
v 2.129040 -0.619146 1.460239
v 1.428356 -0.560576 0.491191
v 1.534467 -0.627916 -0.236766
v 2.356032 -0.739507 -0.553377
v 1.550620 -0.480114 -0.254678
v 2.371630 -0.592308 -0.569720
v 2.137987 -0.320547 1.454718
v 1.547225 -0.537813 1.042549
v 1.466559 -0.459027 0.383372
v 3.124694 -0.448022 -0.206339
v 1.975393 -0.134411 0.030956
v 2.765356 -0.050540 0.218945
v 2.937392 -0.205380 0.979029
v 2.560255 -0.008823 0.770533
v 2.051915 -0.106839 0.811241
v 1.663356 -0.308637 0.964782
# 18 positions

vt 0.529538 0.995000
vt 0.416210 0.995000
vt 0.391044 0.913169
vt 0.471732 0.854827
vt 0.532344 0.863662
vt 0.558707 0.932069
vt 0.136064 0.366738
vt 0.067703 0.357396
vt 0.069003 0.345140
vt 0.137409 0.354431
vt 0.209842 0.259729
vt 0.210587 0.234866
vt 0.161398 0.252957
vt 0.431819 0.200095
vt 0.425120 0.137991
vt 0.437426 0.139483
vt 0.429924 0.246004
vt 0.423363 0.191118
vt 0.291674 0.260526
vt 0.425823 0.864724
vt 0.005000 0.369410
vt 0.480653 0.707148
vt 0.496307 0.641372
vt 0.460896 0.611452
vt 0.559594 0.627047
vt 0.542233 0.658450
vt 0.599203 0.693609
vt 0.545623 0.700776
vt 0.509998 0.749515
vt 0.430639 0.674155
vt 0.456871 0.742516
vt 0.558408 0.733129
vt 0.277149 0.225277
vt 0.192280 0.230830
vt 0.212484 0.132131
vt 0.177235 0.117230
vt 0.411833 0.280323
vt 0.410842 0.239529
vt 0.177235 0.230557
vt 0.006071 0.354365
# 40 texture coordinates

vn -0.009738 -0.999953 0.000000
vn -0.009738 -0.999953 0.000000
vn -0.009738 -0.999953 0.000000
vn -0.105239 -0.991509 0.076380
vn -0.105239 -0.991509 0.076380
vn -0.105239 -0.991509 0.076380
vn 0.046497 -0.976888 0.208631
vn 0.046497 -0.976888 0.208631
vn 0.046497 -0.976888 0.208631
vn -0.050301 -0.998446 -0.023976
vn -0.050301 -0.998446 -0.023976
vn -0.050301 -0.998446 -0.023976
vn -0.493356 0.666940 -0.558382
vn 0.055309 0.677783 -0.733178
vn 0.007725 -0.105258 -0.994415
vn -0.754429 0.005447 -0.656359
vn -0.060725 0.020271 0.997949
vn -0.044868 0.565319 0.823651
vn -0.755154 0.448337 0.478264
vn -0.910162 0.407747 0.073123
vn -0.643858 0.764576 -0.029490
vn 0.762116 0.454101 0.461489
vn -0.195876 -0.977146 0.082571
vn -0.195876 -0.977146 0.082571
vn -0.195876 -0.977146 0.082571
vn 0.608428 0.647041 -0.459515
vn -0.219783 0.906665 -0.360075
vn 0.319541 0.902611 -0.288421
vn 0.664031 0.652384 0.365319
vn 0.062482 0.981784 0.179433
vn -0.311308 0.941337 0.130278
vn -0.574441 0.781909 0.242151
vn 0.901642 -0.071923 -0.426461
# 33 normals

usemtl UV
s 7
f 19/41/32 20/42/33 21/43/34
s 8
f 22/44/35 23/45/36 24/46/37
s 9
f 22/44/38 24/46/39 19/41/40
s 10
f 21/43/41 22/44/42 19/41/43
s 11
f 25/47/44 26/48/45 24/49/46 23/50/47
f 22/54/51 25/55/44 23/56/47
f 22/54/51 28/57/50 29/58/52
f 24/49/46 26/48/45 30/61/57
f 22/54/51 29/58/52 25/55/44
f 26/70/45 25/71/44 31/62/58
f 31/62/58 25/71/44 29/69/52
f 35/68/62 36/72/63 27/67/49
f 29/69/52 36/72/63 35/68/62
f 30/64/57 26/70/45 31/62/58
f 27/77/49 36/78/63 28/57/50
f 28/57/50 36/78/63 29/58/52
s 12
f 21/51/48 27/52/49 28/53/50
f 21/51/48 20/59/53 27/52/49
f 31/62/58 32/63/59 30/64/57
f 32/63/59 33/65/60 30/64/57
f 34/66/61 27/67/49 33/65/60
f 35/68/62 31/62/58 29/69/52
f 34/66/61 32/63/59 31/62/58
f 34/66/61 35/68/62 27/67/49
f 31/62/58 35/68/62 34/66/61
f 32/63/59 34/66/61 33/65/60
f 20/59/53 33/73/60 27/52/49
f 30/74/57 33/75/60 20/76/53
f 30/74/57 20/76/53 19/79/64
f 30/61/57 19/80/64 24/49/46
s 13
f 21/43/54 28/60/55 22/44/56

g Ground
#pivot 0.000000 0.000000 0.000000

v 1.128865 -0.609005 -0.518007
v 1.100510 -0.517253 0.761125
v 2.614471 -0.818133 -1.137131
v -0.967810 -0.539152 0.694800
v -0.863825 -0.612764 -0.611251
v -2.471968 -0.999648 -1.973456
v 1.940414 -0.689784 1.852776
v 0.745218 -1.020089 -2.577447
v -0.539512 -0.527843 2.801820
v 2.943281 -0.731855 0.527608
v -2.725460 -0.745099 1.066312
v -0.915637 -1.039481 -2.427964
# 12 positions

vt 0.176478 0.674072
vt 0.282984 0.676433
vt 0.124927 0.550375
vt 0.277461 0.848651
vt 0.168714 0.839992
vt 0.055291 0.973893
vt 0.373879 0.606499
vt 0.005000 0.706017
vt 0.452901 0.812989
vt 0.263540 0.522996
vt 0.308395 0.995000
vt 0.017447 0.844306
vt 0.531591 0.152790
vt 0.784695 0.173896
vt 0.715059 0.597415
vt 0.576446 0.624793
vt 0.466107 0.541290
vt 0.387085 0.334801
vt 0.822539 0.303483
vt 0.834986 0.441773
# 20 texture coordinates

vn 0.040561 0.988636 -0.144757
vn 0.039381 0.998757 0.030565
vn 0.061717 0.988276 -0.139652
vn -0.063266 0.997444 -0.033222
vn -0.050553 0.989247 -0.137243
vn -0.100719 0.983791 -0.148359
vn 0.070683 0.996797 0.037417
vn 0.018109 0.981888 -0.188592
vn 0.014763 0.999856 -0.008367
vn 0.111093 0.993157 -0.036033
vn -0.128074 0.990122 -0.057056
vn -0.036024 0.973102 -0.227539
vn 0.012919 -0.996739 0.079655
vn 0.021011 -0.995867 0.088356
vn 0.011823 -0.997933 0.063164
vn 0.021012 -0.998645 0.047606
vn 0.002989 -0.998439 0.055776
vn -0.011623 -0.990280 0.138606
vn 0.014428 -0.991339 0.130535
vn 0.021615 -0.993556 0.111261
# 20 normals

usemtl UV
s 14
f 37/81/65 38/82/66 39/83/67
f 40/84/68 41/85/69 42/86/70
f 41/85/69 40/84/68 38/82/66
f 41/85/69 37/81/65 39/83/67
f 38/82/66 40/84/68 43/87/71
f 39/83/67 44/88/72 41/85/69
f 40/84/68 45/89/73 43/87/71
f 38/82/66 46/90/74 39/83/67
f 42/86/70 47/91/75 40/84/68
f 38/82/66 43/87/71 46/90/74
f 40/84/68 47/91/75 45/89/73
f 44/88/72 48/92/76 41/85/69
f 38/82/66 37/81/65 41/85/69
f 48/92/76 42/86/70 41/85/69
s 15
f 47/93/77 42/94/78 39/95/79
f 39/95/79 46/96/80 43/97/81
f 43/97/81 45/98/82 47/93/77
f 43/97/81 47/93/77 39/95/79
f 48/99/83 44/100/84 39/95/79
f 39/95/79 42/94/78 48/99/83

g Stone
#pivot 0.000000 0.000000 0.000000

v 0.000135 -0.786837 -2.977956
v 0.315177 -0.747802 -2.156948
v -0.017777 -1.052160 -2.994109
v -1.714783 -0.928724 -2.399538
v -1.709260 -0.627269 -2.390591
v -1.435428 -0.951684 -3.173042
v -0.731586 -0.922007 -3.231102
v -0.723832 -0.654816 -3.219211
v -0.048205 -0.603517 -1.403883
v -1.412539 -0.784212 -1.567974
v -0.025604 -0.832478 -1.422395
v 0.361632 -0.951346 -2.227366
v -1.258404 -0.496490 -1.560226
v -1.420785 -0.683467 -3.164903
v -0.225535 -0.379729 -2.549877
v -0.368514 -0.349905 -1.776539
v -1.061454 -0.252311 -1.893092
v -1.065784 -0.413562 -2.476663
# 18 positions

vt 0.462629 0.223546
vt 0.465879 0.155185
vt 0.440537 0.224891
vt 0.290434 0.147087
vt 0.265333 0.147832
vt 0.292346 0.082682
vt 0.220344 0.424371
vt 0.219698 0.446619
vt 0.159418 0.435626
vt 0.160909 0.413534
vt 0.894649 0.520601
vt 0.781048 0.535647
vt 0.896531 0.539666
vt 0.278949 0.421900
vt 0.477893 0.092482
vt 0.458829 0.094023
vt 0.448932 0.161048
vt 0.278401 0.216327
vt 0.254444 0.216972
vt 0.793882 0.511690
vt 0.270013 0.083360
vt 0.277730 0.444233
vt 0.844399 0.731130
vt 0.925760 0.590482
vt 0.995000 0.672347
vt 0.990166 0.613742
vt 0.975267 0.731782
vt 0.911425 0.763373
vt 0.856521 0.615648
vt 0.858557 0.085512
vt 0.922948 0.097417
vt 0.953977 0.070747
vt 0.940959 0.171513
vt 0.913244 0.155114
vt 0.871820 0.209053
vt 0.864653 0.155474
vt 0.802825 0.127002
vt 0.891274 0.040490
vt 0.822913 0.066722
vt 0.807347 0.185033
# 40 texture coordinates

vn 0.626707 0.502208 -0.595841
vn 0.729700 0.683680 0.010945
vn 0.092847 -0.989169 -0.113681
vn -0.999672 0.018830 -0.017348
vn -0.756333 0.651058 -0.063910
vn -0.658185 0.054678 -0.750868
vn 0.048416 -0.293115 -0.954850
vn 0.058544 0.776627 -0.627235
vn 0.374469 0.625196 0.684765
vn -0.626205 0.254210 0.737051
vn 0.416668 -0.031263 0.908521
vn 0.988636 -0.131460 -0.072926
vn -0.395578 0.559609 0.728256
vn -0.400886 0.745819 -0.532018
vn 0.036563 -0.998712 0.035164
vn 0.036563 -0.998713 0.035164
vn 0.036563 -0.998713 0.035164
vn 0.045885 -0.997878 0.046192
vn 0.045885 -0.997878 0.046192
vn 0.045885 -0.997878 0.046192
vn -0.111471 -0.989455 0.092487
vn -0.111471 -0.989455 0.092487
vn -0.111471 -0.989455 0.092487
vn -0.054059 -0.980293 0.190007
vn -0.054059 -0.980293 0.190007
vn -0.054059 -0.980293 0.190007
vn 0.318872 0.916211 -0.242650
vn 0.222753 0.940391 0.256995
vn -0.196598 0.974142 0.111338
vn -0.169003 0.946070 -0.276386
# 30 normals

usemtl UV
s 16
f 49/101/85 50/102/86 51/103/87
f 52/104/88 53/105/89 54/106/90
f 55/107/91 56/108/92 49/109/85 51/110/87
f 57/111/93 58/112/94 59/113/95
f 55/107/91 54/114/90 56/108/92
f 50/102/86 57/115/93 59/116/95 60/117/96
f 52/104/88 58/118/94 53/105/89
f 58/118/94 61/119/97 53/105/89
f 57/111/93 61/120/97 58/112/94
f 53/105/89 62/121/98 54/106/90
f 54/114/90 62/122/98 56/108/92
f 50/102/86 60/117/96 51/103/87
f 55/125/91 51/127/87 60/128/96
f 63/130/111 64/131/112 57/132/93
f 64/131/112 61/133/97 57/132/93
f 65/134/113 53/135/89 61/133/97
f 66/136/114 63/130/111 56/137/92
f 65/134/113 64/131/112 63/130/111
f 50/138/86 49/139/85 63/130/111
f 63/130/111 49/139/85 56/137/92
f 66/136/114 62/140/98 53/135/89
f 56/137/92 62/140/98 66/136/114
f 65/134/113 66/136/114 53/135/89
f 63/130/111 66/136/114 65/134/113
f 64/131/112 65/134/113 61/133/97
f 57/132/93 50/138/86 63/130/111
s 17
f 59/123/99 52/124/100 55/125/101
s 18
f 52/124/102 54/126/103 55/125/104
s 19
f 55/125/105 60/128/106 59/123/107
s 20
f 59/123/108 58/129/109 52/124/110

g Stone3
#pivot 0.000000 0.000000 0.000000

v -0.933285 -0.340399 1.200867
v -0.596742 -0.534279 1.871300
v -0.913352 -0.521818 1.049734
v -1.627161 -0.570813 0.812742
v -2.610359 -0.482407 1.644306
v -2.604836 -0.332181 1.653253
v -2.179774 -0.505367 1.022030
v -2.459342 -0.489123 2.778327
v -2.165132 -0.388379 1.181397
v -0.795830 -0.489123 2.778327
v -1.044742 -0.060796 1.716044
v -1.298992 0.132124 2.255741
v -0.792551 -0.157200 2.791189
v -2.153979 -0.050173 2.483618
v -1.881915 0.110430 2.088579
v -1.961360 0.032755 1.567181
v -1.354178 -0.229443 1.197086
# 17 positions

vt 0.379472 0.327130
vt 0.363328 0.271307
vt 0.364366 0.339714
vt 0.005000 0.248410
vt 0.037317 0.190635
vt 0.024733 0.188976
vt 0.333988 0.164123
vt 0.321479 0.164868
vt 0.335899 0.112309
vt 0.334547 0.258546
vt 0.074984 0.329816
vt 0.035696 0.293204
vt 0.022426 0.294423
vt 0.711758 0.978423
vt 0.711758 0.839912
vt 0.806182 0.827338
vt 0.857995 0.863190
vt 0.875421 0.909203
vt 0.855688 0.968638
vt 0.787281 0.995000
vt 0.080213 0.199916
vt 0.125150 0.221086
vt 0.169734 0.178917
vt 0.144124 0.292275
vt 0.111232 0.269622
vt 0.067818 0.276237
vt 0.037002 0.225681
vt 0.402753 0.284234
vt 0.297998 0.234007
vt 0.846583 0.771371
vt 0.733225 0.762459
vt 0.707799 0.799008
vt 0.394726 0.194713
vt 0.846310 0.799008
vt 0.367088 0.195784
# 35 texture coordinates

vn 0.558891 0.691548 -0.457605
vn 0.781044 0.613464 -0.116756
vn 0.480350 0.591937 -0.647204
vn -0.054480 0.738133 -0.672452
vn -0.984177 0.046368 -0.171012
vn -0.749109 0.648321 -0.136071
vn -0.264354 0.767647 -0.583811
vn -0.448760 0.650572 0.612676
vn -0.325041 0.731697 -0.599139
vn 0.000000 -0.999983 -0.005922
vn 0.000000 -0.999983 -0.005922
vn 0.000000 -0.999982 -0.005922
vn -0.139899 -0.988326 -0.060337
vn -0.139899 -0.988326 -0.060337
vn -0.139899 -0.988326 -0.060337
vn 0.084089 -0.995325 -0.047502
vn 0.084089 -0.995325 -0.047502
vn 0.084089 -0.995325 -0.047502
vn -0.012787 -0.998817 0.046919
vn -0.012787 -0.998817 0.046919
vn -0.012787 -0.998817 0.046919
vn -0.040235 -0.997478 0.058473
vn -0.040235 -0.997478 0.058473
vn -0.040235 -0.997478 0.058473
vn 0.490609 0.843399 -0.219044
vn 0.155267 0.972657 0.172714
vn 0.431206 0.585562 0.686424
vn -0.378409 0.781934 0.495365
vn -0.212042 0.977056 -0.019988
vn -0.190434 0.917576 -0.348982
vn 0.099886 0.822240 -0.560307
vn 0.451316 -0.039004 0.891511
# 32 normals

usemtl UV
s 21
f 67/141/115 68/142/116 69/143/117
f 70/144/118 67/145/115 69/146/117
f 71/147/119 72/148/120 73/149/121
f 71/147/119 74/150/122 72/148/120
f 72/151/120 75/152/123 73/153/121
f 73/153/121 75/152/123 70/144/118
f 77/161/139 78/162/140 79/163/141
f 78/162/140 80/164/142 79/163/141
f 81/165/143 72/151/120 80/164/142
f 82/166/144 83/167/145 70/144/118
f 81/165/143 78/162/140 77/161/139
f 68/142/116 67/141/115 77/168/139
f 83/167/145 67/145/115 70/144/118
f 82/166/144 75/152/123 72/151/120
f 70/144/118 75/152/123 82/166/144
f 81/165/143 82/166/144 72/151/120
f 77/161/139 82/166/144 81/165/143
f 78/162/140 81/165/143 80/164/142
f 74/150/122 80/169/142 72/148/120
f 79/170/141 80/171/142 74/172/122
f 79/173/141 68/142/116 77/168/139
f 83/167/145 77/161/139 67/145/115
f 82/166/144 77/161/139 83/167/145
f 79/170/141 74/172/122 76/174/146
f 79/173/141 76/175/146 68/142/116
s 22
f 76/154/124 74/155/125 71/156/126
s 23
f 71/156/127 73/157/128 70/158/129
s 24
f 70/158/130 69/159/131 68/160/132
s 25
f 70/158/133 68/160/134 76/154/135
s 26
f 71/156/136 70/158/137 76/154/138

g Stone4
#pivot 0.000000 0.000000 0.000000

v -3.098402 -0.741424 -1.266263
v -2.272347 -0.642187 -1.518998
v -2.264699 -0.941206 -1.509078
v -3.091491 -1.007473 -1.254097
v -3.451667 -0.970643 -0.634881
v -3.457245 -0.703178 -0.629973
v -1.693165 -0.455604 -1.278644
v -1.655822 -0.645337 0.124176
v -1.679582 -0.787494 -1.282302
v -3.345648 -0.811072 0.034297
v -1.727656 -0.330662 0.111106
v -2.597615 -0.586213 0.495582
v -3.280694 -0.639013 0.073962
v -2.582659 -0.887479 0.494919
v -2.715257 -0.318620 -0.988549
v -1.980221 -0.163952 -0.819257
v -2.105554 -0.158580 -0.123094
v -2.836760 -0.226750 -0.150286
# 18 positions

vt 0.285473 0.476273
vt 0.216693 0.484536
vt 0.216056 0.459638
vt 0.284898 0.454120
vt 0.032612 0.615265
vt 0.010343 0.615674
vt 0.013528 0.562693
vt 0.035679 0.563706
vt 0.426598 0.648245
vt 0.410800 0.531440
vt 0.398963 0.648550
vt 0.019326 0.670983
vt 0.168467 0.500071
vt 0.167337 0.472437
vt 0.703982 0.905548
vt 0.698000 0.879347
vt 0.625564 0.900625
vt 0.437001 0.532529
vt 0.568688 0.905022
vt 0.563280 0.919348
vt 0.005000 0.674286
vt 0.626810 0.925710
vt 0.687502 0.870279
vt 0.539523 0.795085
vt 0.633595 0.722728
vt 0.577876 0.731556
vt 0.685153 0.752718
vt 0.706385 0.821560
vt 0.570393 0.872258
vt 0.189727 0.353162
vt 0.203823 0.291960
vt 0.165573 0.268059
vt 0.281290 0.270931
vt 0.261789 0.302396
vt 0.313302 0.343367
vt 0.259525 0.363279
vt 0.219584 0.414943
vt 0.145560 0.316284
vt 0.166603 0.385065
vt 0.278196 0.400243
# 40 texture coordinates

vn -0.552250 0.497933 -0.668643
vn -0.073384 0.561409 -0.824278
vn -0.040694 -0.028063 -0.998778
vn -0.597362 -0.039445 -0.801001
vn -0.974074 -0.027070 -0.224605
vn -0.757772 0.629204 -0.172867
vn 0.677211 0.586619 -0.444144
vn 0.872561 0.189102 0.450420
vn 0.914680 0.032645 -0.402858
vn -0.841944 0.136210 0.522089
vn 0.662057 0.601435 0.447165
vn -0.118492 0.523737 0.843599
vn -0.640470 0.641689 0.421939
vn -0.063890 -0.005368 0.997943
vn 0.101151 -0.994861 -0.004571
vn 0.101151 -0.994861 -0.004571
vn 0.101151 -0.994861 -0.004571
vn -0.251487 -0.931719 0.262019
vn -0.251487 -0.931719 0.262019
vn -0.251487 -0.931719 0.262019
vn 0.118198 -0.984793 0.127325
vn 0.118198 -0.984793 0.127326
vn 0.118198 -0.984793 0.127326
vn 0.174061 -0.963394 0.203897
vn 0.174061 -0.963394 0.203897
vn 0.174061 -0.963394 0.203897
vn 0.285844 -0.953890 0.091584
vn 0.285844 -0.953890 0.091584
vn 0.285844 -0.953890 0.091584
vn -0.307443 0.882933 -0.354836
vn 0.221782 0.953085 -0.206013
vn 0.020735 0.973637 0.227159
vn -0.335809 0.929509 0.152461
# 33 normals

usemtl UV
s 27
f 84/176/147 85/177/148 86/178/149 87/179/150
f 88/180/151 89/181/152 84/182/147 87/183/150
f 90/184/153 91/185/154 92/186/155
f 88/180/151 93/187/156 89/181/152
f 85/177/148 90/188/153 92/189/155 86/178/149
f 91/190/154 94/191/157 95/192/158
f 90/184/153 94/193/157 91/185/154
f 95/192/158 96/194/159 93/195/156
f 93/187/156 96/196/159 89/181/152
f 98/205/176 99/206/177 90/207/153
f 99/206/177 94/208/157 90/207/153
f 100/209/178 95/210/158 94/208/157
f 101/211/179 98/205/176 89/212/152
f 100/209/178 99/206/177 98/205/176
f 85/213/148 84/214/147 98/205/176
f 98/205/176 84/214/147 89/212/152
f 101/211/179 96/215/159 95/210/158
f 89/212/152 96/215/159 101/211/179
f 100/209/178 101/211/179 95/210/158
f 98/205/176 101/211/179 100/209/178
f 99/206/177 100/209/178 94/208/157
f 90/207/153 85/213/148 98/205/176
s 28
f 97/197/160 95/192/158 93/195/156
f 97/197/160 91/190/154 95/192/158
s 29
f 92/198/161 97/199/162 88/200/163
s 30
f 97/199/164 93/201/165 88/200/166
s 31
f 88/200/167 87/202/168 86/203/169
s 32
f 88/200/170 86/203/171 92/198/172
s 33
f 92/198/173 91/204/174 97/199/175

g Stone2
#pivot 0.000000 0.000000 0.000000

v 1.294613 -0.403856 1.337566
v 1.609654 -0.364821 2.158575
v 1.593310 -0.663249 2.142979
v 1.276701 -0.669178 1.321413
v 0.562892 -0.539026 1.084421
v 0.570645 -0.271835 1.096313
v 1.195812 -0.221454 2.804765
v -0.118061 -0.552458 2.898777
v 1.242994 -0.552459 2.898777
v -0.057380 -0.557366 1.201682
v 0.046623 -0.244620 2.826980
v -0.414783 -0.244288 1.924932
v 0.043466 -0.234803 1.354595
v -0.420306 -0.545742 1.915986
v 1.228956 -0.042298 2.325443
v 0.867313 0.083239 2.451400
v 0.353617 0.090556 2.213738
v 0.361859 -0.049352 1.696138
v 1.068942 0.003252 1.765646
# 19 positions

vt 0.864511 0.506645
vt 0.867762 0.438284
vt 0.842913 0.439583
vt 0.842420 0.507990
vt 0.826137 0.555909
vt 0.825491 0.578156
vt 0.765211 0.567163
vt 0.766702 0.545072
vt 0.114399 0.153776
vt 0.005000 0.181337
vt 0.118327 0.181337
vt 0.877783 0.554382
vt 0.852138 0.376652
vt 0.247238 0.220931
vt 0.221606 0.214953
vt 0.221579 0.139845
vt 0.018712 0.155705
vt 0.220789 0.092356
vt 0.247647 0.079624
vt 0.869387 0.581240
vt 0.879699 0.384480
vt 0.246679 0.139100
vt 0.836480 0.350140
vt 0.836480 0.236813
vt 0.918312 0.211646
vt 0.987551 0.293512
vt 0.977788 0.241865
vt 0.967818 0.352946
vt 0.899411 0.379309
vt 0.794304 0.618590
vt 0.804792 0.648702
vt 0.834214 0.621349
vt 0.836064 0.717036
vt 0.785003 0.691474
vt 0.760956 0.755454
vt 0.741905 0.690788
vt 0.747693 0.631913
vt 0.691961 0.673404
vt 0.780410 0.586891
vt 0.712049 0.613123
vt 0.713467 0.717299
# 41 texture coordinates

vn 0.626130 0.503004 -0.595775
vn 0.914783 0.403784 -0.011434
vn 0.998365 -0.056851 -0.005957
vn 0.716919 -0.004005 -0.697145
vn 0.099489 0.042260 -0.994141
vn 0.065668 0.692666 -0.718263
vn 0.306555 0.544660 0.780622
vn -0.526696 0.401458 0.749281
vn 0.367581 0.274504 0.888556
vn -0.584603 0.398846 -0.706513
vn -0.355318 0.677103 0.644423
vn -0.755662 0.654824 -0.013389
vn -0.404884 0.768085 -0.496100
vn -0.998868 0.019587 -0.043352
vn 0.000275 -0.999973 -0.007300
vn 0.000275 -0.999973 -0.007300
vn 0.000275 -0.999973 -0.007300
vn 0.000275 -0.999973 -0.007300
vn 0.036068 -0.998751 0.034578
vn 0.036068 -0.998751 0.034578
vn 0.036068 -0.998751 0.034578
vn -0.206457 -0.974616 0.086596
vn -0.206457 -0.974616 0.086596
vn -0.206457 -0.974616 0.086596
vn -0.180332 -0.981754 0.060328
vn -0.180332 -0.981754 0.060328
vn -0.180332 -0.981754 0.060328
vn 0.551312 0.826797 0.111636
vn 0.057319 0.932985 0.355322
vn -0.248752 0.965194 0.080770
vn -0.154699 0.942596 -0.295940
vn 0.335558 0.887213 -0.316628
# 32 normals

usemtl UV
s 34
f 102/216/180 103/217/181 104/218/182 105/219/183
f 106/220/184 107/221/185 102/222/180 105/223/183
f 108/224/186 109/225/187 110/226/188
f 106/220/184 111/227/189 107/221/185
f 103/217/181 110/228/188 104/218/182
f 109/229/187 112/230/190 113/231/191
f 108/224/186 112/232/190 109/225/187
f 113/231/191 114/233/192 111/234/189
f 111/227/189 114/235/192 107/221/185
f 103/217/181 108/236/186 110/228/188
f 116/245/207 117/246/208 108/247/186
f 117/246/208 112/248/190 108/247/186
f 118/249/209 113/250/191 112/248/190
f 119/251/210 120/252/211 107/253/185
f 118/249/209 117/246/208 120/252/211
f 103/254/181 102/255/180 120/252/211
f 120/252/211 102/255/180 107/253/185
f 119/251/210 114/256/192 113/250/191
f 107/253/185 114/256/192 119/251/210
f 118/249/209 119/251/210 113/250/191
f 120/252/211 119/251/210 118/249/209
f 117/246/208 118/249/209 112/248/190
f 116/245/207 103/254/181 120/252/211
f 116/245/207 120/252/211 117/246/208
f 116/245/207 108/247/186 103/254/181
s 35
f 115/237/193 113/231/191 111/234/189
f 115/237/193 109/229/187 113/231/191
s 36
f 110/238/194 109/239/195 115/240/196 106/241/197
s 37
f 115/240/198 111/242/199 106/241/200
s 38
f 106/241/201 105/243/202 104/244/203
s 39
f 106/241/204 104/244/205 110/238/206

# 199 faces
