# Blender v2.79 (sub 0) OBJ File: ''
# www.blender.org
mtllib ShootBeforeYou´reShot.mtl
o book_book_Cube.001
v -1.000000 0.650796 1.797471
v -0.882278 0.650796 1.797471
v -0.882278 0.650796 -0.978319
v -1.000000 0.650796 -0.978319
v 1.000000 0.001566 -0.972242
v -0.882278 0.001566 -0.978319
v -0.882278 0.124173 -0.978319
v 0.990868 0.124173 -0.972242
v 0.990146 0.001566 1.830983
v 0.990146 0.124173 1.775467
v -1.000000 0.001566 1.797471
v -1.000000 0.001566 -0.978319
v -0.882278 0.001566 1.797471
v 0.990146 0.650796 1.830983
v 1.000000 0.650796 -0.972242
v 0.990868 0.528190 -0.972242
v -0.882278 0.528190 -0.978319
v 0.990146 0.528190 1.775467
v -0.882278 0.528190 1.797471
v -0.882278 0.124173 1.797471
v 0.965947 0.167980 1.731342
v -0.827643 0.167980 1.752637
v -0.827643 0.484383 1.752637
v -0.827643 0.167980 -0.933742
v 0.966669 0.167980 -0.927860
v 0.965947 0.484383 1.731342
v -0.827643 0.484383 -0.933742
v 0.966669 0.484383 -0.927860
v -0.827643 0.245626 1.752637
v -0.827643 0.406737 1.752637
v -0.837180 0.167980 1.754162
v 0.965947 0.167980 1.731342
v 0.965947 0.245626 1.731342
v -0.837180 0.245626 1.754162
v 0.966669 0.167980 -0.927860
v -0.840306 0.167980 -0.931951
v -0.840306 0.245626 -0.931951
v 0.966669 0.245626 -0.927860
v 0.965947 0.484383 1.731342
v -0.837180 0.484383 1.754162
v -0.837180 0.406737 1.754162
v 0.965947 0.406737 1.731342
v -0.840306 0.484383 -0.931951
v 0.966669 0.484383 -0.927860
v 0.966669 0.406737 -0.927860
v -0.840306 0.406737 -0.931951
v -0.837180 0.346797 1.754162
v 0.949961 0.346797 1.731633
v 0.950694 0.346797 -0.928036
v -0.840306 0.346797 -0.931951
v 0.949960 0.305566 1.736154
v -0.837180 0.305566 1.754162
v -0.840306 0.305566 -0.931951
v 0.950695 0.305566 -0.932557
vt 0.539839 0.990000
vt 0.539839 0.967529
vt 0.010000 0.967529
vt 0.010000 0.990000
vt 0.010000 0.081103
vt 0.387341 0.081103
vt 0.387341 0.105682
vt 0.011831 0.105682
vt 0.755608 0.444901
vt 0.755608 0.990000
vt 0.779449 0.990000
vt 0.779449 0.455696
vt 0.016397 0.218870
vt 0.546236 0.218870
vt 0.546236 0.241340
vt 0.016397 0.241340
vt 0.546236 0.610124
vt 0.011160 0.608243
vt 0.678632 0.460161
vt 0.678632 0.990000
vt 0.554708 0.990000
vt 0.554708 0.460161
vt 0.010000 0.211254
vt 0.011831 0.186675
vt 0.387341 0.186675
vt 0.387341 0.211254
vt 0.829390 0.444901
vt 0.805549 0.455696
vt 0.805549 0.990000
vt 0.829390 0.990000
vt 0.444015 0.079276
vt 0.444015 0.104199
vt 0.824650 0.104199
vt 0.824650 0.079276
vt 0.545076 0.600627
vt 0.010000 0.598746
vt 0.444015 0.211254
vt 0.824650 0.211254
vt 0.824650 0.186330
vt 0.444015 0.186330
vt 0.410941 0.081103
vt 0.410941 0.211254
vt 0.420084 0.079276
vt 0.420084 0.211254
vt 0.819731 0.177425
vt 0.455122 0.177425
vt 0.455122 0.113105
vt 0.376388 0.114464
vt 0.016682 0.114464
vt 0.787968 0.981370
vt 0.787968 0.464277
vt 0.819731 0.113105
vt 0.376388 0.177893
vt 0.016682 0.177893
vt 0.797031 0.464277
vt 0.797031 0.981370
vt 0.006893 0.993107
vt 0.006893 0.993107
vt 0.006893 0.993107
vt 0.006893 0.993107
vt 0.364164 0.070417
vt 0.708470 0.070417
vt 0.708470 0.055590
vt 0.364164 0.055590
vt 0.010000 0.012073
vt 0.355030 0.012073
vt 0.355030 0.026899
vt 0.010000 0.026899
vt 0.687260 0.478164
vt 0.687260 0.989098
vt 0.702179 0.989098
vt 0.702179 0.478164
vt 0.708470 0.010000
vt 0.364164 0.010000
vt 0.364164 0.024826
vt 0.708470 0.024826
vt 0.355030 0.072488
vt 0.010000 0.072488
vt 0.010000 0.057662
vt 0.355030 0.057662
vt 0.748053 0.989098
vt 0.748053 0.478164
vt 0.733135 0.478164
vt 0.733135 0.989098
vt 0.364164 0.036272
vt 0.705418 0.036272
vt 0.013051 0.046217
vt 0.355030 0.046217
vt 0.721618 0.478108
vt 0.721618 0.989131
vt 0.705417 0.044145
vt 0.364164 0.044145
vt 0.355030 0.038344
vt 0.013050 0.038344
vt 0.713696 0.990000
vt 0.713696 0.477239
vn 0.0000 1.0000 0.0000
vn 0.0032 0.0001 -1.0000
vn 0.0031 0.0001 -1.0000
vn 0.9993 0.0376 0.0019
vn 0.0000 -1.0000 -0.0000
vn -1.0000 -0.0000 0.0000
vn 0.0032 -0.0001 -1.0000
vn 0.0031 -0.0001 -1.0000
vn 0.9993 -0.0376 0.0019
vn -0.0030 -0.2208 0.9753
vn -0.0030 0.2208 0.9753
vn 0.0000 0.0000 -1.0000
vn 0.0000 -0.0000 1.0000
vn 0.0083 0.7110 0.7031
vn 0.6344 -0.0000 0.7730
vn 0.0023 0.7121 -0.7021
vn 0.8753 0.4835 0.0002
vn 0.0083 -0.7110 0.7031
vn 0.6322 0.0000 -0.7748
vn 0.0023 -0.7121 -0.7021
vn 0.8753 -0.4835 0.0002
vn -0.0000 1.0000 0.0001
vn 0.0127 0.0000 0.9999
vn 0.0023 0.0000 -1.0000
vn 1.0000 0.0000 0.0003
vn 0.0126 0.0004 0.9999
vn 0.0126 0.0003 0.9999
vn 0.0022 0.0005 -1.0000
vn 0.0022 0.0006 -1.0000
vn 0.0126 0.0007 0.9999
vn 0.0022 0.0012 -1.0000
vn 0.9662 -0.2576 0.0003
vn 0.0114 -0.0386 0.9992
vn 0.0010 -0.0390 -0.9992
vn 0.9662 0.2576 0.0003
vn 0.0113 0.0547 0.9984
vn 0.0009 0.0547 -0.9985
usemtl None
s 1
f 1/1/1 2/2/1 3/3/1 4/4/1
f 5/5/2 6/6/3 7/7/2 8/8/2
f 9/9/4 5/10/4 8/11/4 10/12/4
f 11/13/5 12/14/5 6/15/5 13/16/5
f 2/2/1 14/17/1 15/18/1 3/3/1
f 12/19/6 11/20/6 1/21/6 4/22/6
f 15/23/7 16/24/7 17/25/7 3/26/8
f 14/27/9 18/28/9 16/29/9 15/30/9
f 2/31/10 19/32/10 18/33/10 14/34/10
f 13/16/5 6/15/5 5/35/5 9/36/5
f 13/37/11 9/38/11 10/39/11 20/40/11
f 6/6/3 12/41/12 4/42/12 3/26/8 17/25/7 7/7/2
f 1/43/13 11/44/13 13/37/13 20/40/13 19/32/13 2/31/13
f 20/40/14 10/39/14 21/45/14 22/46/14
f 19/32/15 20/40/15 22/46/15 23/47/15
f 8/8/16 7/7/16 24/48/16 25/49/16
f 10/12/17 8/11/17 25/50/17 21/51/17
f 18/33/18 19/32/18 23/47/18 26/52/18
f 7/7/19 17/25/19 27/53/19 24/48/19
f 17/25/20 16/24/20 28/54/20 27/53/20
f 16/29/21 18/28/21 26/55/21 28/56/21
f 23/57/22 22/58/1 29/59/1 30/60/1
f 31/61/23 32/62/23 33/63/23 34/64/23
f 35/65/24 36/66/24 37/67/24 38/68/24
f 32/69/25 35/70/25 38/71/25 33/72/25
f 39/73/23 40/74/23 41/75/26 42/76/27
f 43/77/24 44/78/24 45/79/28 46/80/29
f 44/81/25 39/82/25 42/83/25 45/84/25
f 42/76/27 41/75/26 47/85/30 48/86/30
f 46/80/29 45/79/28 49/87/31 50/88/31
f 45/84/32 42/83/32 48/89/32 49/90/32
f 34/64/33 33/63/33 51/91/33 52/92/33
f 38/68/34 37/67/34 53/93/34 54/94/34
f 33/72/35 38/71/35 54/95/35 51/96/35
f 52/92/36 51/91/36 48/86/36 47/85/36
f 51/96/25 54/95/25 49/90/25 48/89/25
f 54/94/37 53/93/37 50/88/37 49/87/37
