# Blender v2.79 (sub 0) OBJ File: ''
# www.blender.org
mtllib Stol.mtl
o Cube_Cube.001
v 0.761244 1.699671 -0.720307
v 0.891322 1.699671 0.735264
v 0.867696 1.699671 0.736431
v 0.802251 1.720527 -0.793336
v 0.802251 2.002093 -0.770817
v 0.938792 2.002093 0.693416
v 0.938792 1.720527 0.693416
v 0.501824 0.850333 -0.992074
v 0.774730 0.850333 -0.992074
v 0.780907 0.372900 -1.006215
v 0.508011 0.371233 -1.006683
v 0.493609 1.720527 -0.986751
v 0.529475 2.002093 -0.986751
v 0.802251 2.002093 -0.986751
v 0.802251 1.720527 -0.986751
v 0.784639 0.000994 -1.031384
v 0.511733 0.000994 -1.031384
v 0.488338 1.699671 -0.969862
v 0.761244 1.699671 -0.969862
v 0.567040 0.311601 -0.768919
v 0.751866 0.313654 -0.760237
v 0.863286 0.312254 0.739499
v 0.678423 0.312254 0.745300
v 0.567476 0.371047 -0.767588
v 0.678423 0.434083 0.746266
v 0.568356 0.434083 -0.766099
v 0.753219 0.434083 -0.757988
v 0.863286 0.434083 0.742073
v 0.623222 0.398326 -0.092379
v 0.623217 0.344714 -0.093841
v -0.603304 0.344714 -0.093841
v -0.603309 0.398326 -0.092379
v 0.619487 1.699671 0.943337
v 0.624283 1.699671 0.844804
v 0.630150 1.699671 0.746893
v 0.630150 0.000994 0.746893
v 0.618416 0.000994 0.996192
v 0.618416 1.699671 0.996192
v -0.606125 0.344029 0.017113
v -0.606130 0.397641 0.018575
v 0.626043 0.397641 0.018575
v 0.626038 0.344029 0.017113
v 0.891322 0.000994 0.735264
v 0.891322 0.000994 0.996192
v 0.938792 1.720527 1.013249
v 0.891322 1.699671 0.996192
v 0.938792 2.002093 1.013249
v 0.630150 2.002093 0.693416
v 0.630150 2.002093 1.013249
v 0.630150 1.720527 1.013249
v 0.529475 2.002093 -0.770817
v 0.500073 1.699671 -0.732272
v 0.640777 1.699671 -0.726763
v 0.770854 1.699671 0.741539
v 0.867696 1.646078 0.737422
v 0.745052 1.646078 -0.726068
v 0.519319 0.371677 -0.769076
v 0.523467 0.000994 -0.793793
v 0.784639 0.000994 -0.781829
v 0.780462 0.373296 -0.756660
v 0.774730 0.850333 -0.742519
v 0.513558 0.850333 -0.754483
v 0.640777 1.646078 -0.731324
v 0.770854 1.646078 0.742531
v 0.489752 1.699671 -0.905840
v 0.494205 1.699671 -0.833245
v 0.495907 1.646078 -0.833245
v 0.491453 1.646078 -0.905840
v 0.550590 3.975046 -1.037826
v 0.815596 3.975578 -1.036797
v 0.825560 4.209714 -1.159467
v 0.560216 4.209714 -1.159467
v 0.816374 3.938213 -1.217822
v 0.551369 3.937681 -1.218851
v 0.560216 4.185967 -1.333084
v 0.825560 4.185967 -1.333084
v 0.537639 2.352762 -0.997594
v 0.802169 2.352762 -0.997594
v 0.802169 2.352762 -0.799024
v 0.537639 2.352762 -0.799024
v 0.540156 2.881997 -1.050174
v 0.804788 2.879700 -1.051085
v 0.805666 2.904046 -0.857309
v 0.541034 2.906343 -0.856399
v 0.547749 3.701922 -1.150329
v 0.812643 3.638063 -1.144908
v 0.812643 3.653975 -0.957462
v 0.547749 3.653975 -0.957462
v 0.537639 2.351942 -0.931404
v 0.537639 2.351942 -0.865214
v -0.517726 2.351942 -0.865214
v -0.517726 2.351942 -0.931404
v -0.782337 2.002093 -0.770817
v -0.782255 2.352762 -0.799024
v -0.785753 2.904046 -0.857309
v -0.792730 3.653975 -0.957462
v -0.795683 3.975578 -1.036797
v -0.805646 4.209714 -1.159467
v -0.805646 4.185967 -1.333084
v -0.796461 3.938213 -1.217822
v -0.792730 3.638063 -1.144908
v -0.784875 2.879700 -1.051085
v -0.782255 2.352762 -0.997594
v -0.782337 2.002093 -0.986751
v -0.782337 1.720527 -0.986751
v -0.782337 1.720527 -0.793336
v 0.540855 2.939342 -0.991770
v -0.520942 2.939342 -0.991770
v 0.541148 2.947457 -0.927178
v -0.521235 2.947457 -0.927178
v -0.471540 1.646078 -0.905840
v -0.469838 1.699671 -0.905840
v -0.598503 1.699671 0.996192
v -0.599574 1.699671 0.943337
v -0.473695 1.720527 -0.986751
v -0.509562 2.002093 -0.986751
v -0.610237 1.699671 0.746893
v -0.480159 1.699671 -0.732272
v -0.741331 1.699671 -0.720307
v -0.847782 1.699671 0.736431
v -0.871408 1.699671 0.735264
v -0.918879 1.720527 0.693416
v -0.918879 2.002093 0.693416
v -0.468425 1.699671 -0.969862
v -0.481911 0.850333 -0.992074
v -0.488098 0.371233 -1.006683
v -0.760993 0.372900 -1.006215
v -0.754816 0.850333 -0.992074
v -0.491820 0.000994 -1.031384
v -0.764726 0.000994 -1.031384
v -0.741331 1.699671 -0.969862
v -0.610237 1.720527 1.013249
v -0.509562 2.002093 -0.770817
v -0.610237 2.002093 0.693416
v -0.610237 2.002093 1.013249
v -0.547127 0.311601 -0.768919
v -0.658509 0.312254 0.749663
v -0.843372 0.312254 0.739499
v -0.731953 0.313654 -0.760237
v -0.547563 0.371047 -0.767588
v -0.548443 0.434083 -0.766099
v -0.658509 0.434083 0.750629
v -0.843372 0.434083 0.742073
v -0.733306 0.434083 -0.757988
v -0.610237 0.000994 0.746893
v -0.598503 0.000994 0.996192
v -0.871408 0.000994 0.996192
v -0.871408 0.000994 0.735264
v -0.871408 1.699671 0.996192
v -0.918879 1.720527 1.013249
v -0.604370 1.699671 0.844804
v -0.918879 2.002093 1.013249
v -0.750941 1.699671 0.741539
v -0.620863 1.699671 -0.726763
v -0.474292 1.699671 -0.833245
v -0.475994 1.646078 -0.833245
v -0.604370 1.646078 0.844804
v -0.599574 1.646078 0.943337
v -0.725139 1.646078 -0.726068
v -0.847782 1.646078 0.737422
v -0.499405 0.371677 -0.769076
v -0.493645 0.850333 -0.754483
v -0.754816 0.850333 -0.742519
v -0.760549 0.373296 -0.756660
v -0.764726 0.000994 -0.781829
v -0.503554 0.000994 -0.793793
v -0.620863 1.646078 -0.731324
v -0.750941 1.646078 0.742531
v 0.624283 1.646078 0.844804
v 0.619487 1.646078 0.943337
v -0.530677 3.975046 -1.037826
v -0.540303 4.209714 -1.159467
v -0.540303 4.185967 -1.333084
v -0.531455 3.937681 -1.218851
v -0.517726 2.352762 -0.997594
v -0.517726 2.352762 -0.799024
v -0.520243 2.881997 -1.050174
v -0.521121 2.906343 -0.856399
v -0.527836 3.701922 -1.150329
v -0.527836 3.653975 -0.957462
v -0.527836 3.646985 -1.019801
v 0.547749 3.646985 -1.019801
v 0.550757 4.039449 -1.114032
v -0.530844 4.039449 -1.114032
v 0.551016 4.026994 -1.174374
v -0.531103 4.026994 -1.174374
v -0.527836 3.641681 -1.082283
v 0.547749 3.641681 -1.082283
vt 0.635108 0.904960
vt 0.424705 0.923763
vt 0.424537 0.920348
vt 0.485908 0.825386
vt 0.525319 0.822234
vt 0.525319 0.617280
vt 0.485908 0.617280
vt 0.645664 0.910887
vt 0.430754 0.930624
vt 0.055475 0.521451
vt 0.017140 0.521451
vt 0.016272 0.454387
vt 0.054605 0.454153
vt 0.056628 0.643685
vt 0.051590 0.683236
vt 0.013274 0.683236
vt 0.013274 0.643685
vt 0.015748 0.402146
vt 0.054083 0.402146
vt 0.057369 0.640755
vt 0.019034 0.640755
vt 0.177064 0.921490
vt 0.151588 0.917250
vt 0.160782 0.707550
vt 0.186500 0.709783
vt 0.989331 0.823415
vt 0.990000 0.831687
vt 0.778432 0.843845
vt 0.777315 0.826877
vt 0.988606 0.814644
vt 0.264258 0.139693
vt 0.262999 0.156459
vt 0.053390 0.144809
vt 0.054691 0.127851
vt 0.135602 0.695492
vt 0.143088 0.695493
vt 0.143088 0.866681
vt 0.135602 0.866682
vt 0.040202 0.393643
vt 0.026432 0.393803
vt 0.012743 0.393961
vt 0.010000 0.156866
vt 0.044835 0.156463
vt 0.047578 0.393558
vt 0.167601 0.989730
vt 0.167574 0.982244
vt 0.183063 0.982515
vt 0.183090 0.990000
vt 0.080295 0.565236
vt 0.064808 0.564843
vt 0.064808 0.393652
vt 0.080295 0.393258
vt 0.177343 0.631462
vt 0.169857 0.631463
vt 0.169857 0.459483
vt 0.177343 0.459484
vt 0.345700 0.478147
vt 0.361187 0.477753
vt 0.361187 0.649732
vt 0.345700 0.649339
vt 0.277730 0.405465
vt 0.279353 0.441918
vt 0.242935 0.441918
vt 0.242935 0.403828
vt 0.384523 0.930624
vt 0.386988 0.923763
vt 0.292764 0.202132
vt 0.292764 0.165713
vt 0.055674 0.165713
vt 0.055674 0.202132
vt 0.525319 0.572512
vt 0.485908 0.572512
vt 0.769752 0.554876
vt 0.769752 0.597954
vt 0.814392 0.597954
vt 0.814392 0.554876
vt 0.921087 0.310647
vt 0.921087 0.271202
vt 0.877850 0.271202
vt 0.877850 0.310647
vt 0.565384 0.573933
vt 0.565384 0.612005
vt 0.184691 0.100969
vt 0.183559 0.126771
vt 0.394645 0.111408
vt 0.394060 0.085606
vt 0.914437 0.313568
vt 0.876206 0.313568
vt 0.876206 0.551534
vt 0.914437 0.551534
vt 0.545265 0.303642
vt 0.544496 0.323281
vt 0.339560 0.341436
vt 0.338813 0.321798
vt 0.812725 0.544683
vt 0.715656 0.364251
vt 0.722139 0.360599
vt 0.820021 0.541868
vt 0.241183 0.213162
vt 0.293037 0.213581
vt 0.293037 0.250089
vt 0.240955 0.249669
vt 0.174313 0.248960
vt 0.055674 0.247222
vt 0.055679 0.230376
vt 0.055674 0.210714
vt 0.174312 0.212452
vt 0.962472 0.958328
vt 0.961739 0.972882
vt 0.757474 0.990000
vt 0.756762 0.976484
vt 0.177756 0.969357
vt 0.168737 0.974014
vt 0.165290 0.967371
vt 0.174310 0.962714
vt 0.076229 0.944293
vt 0.076227 0.927455
vt 0.083738 0.929754
vt 0.083736 0.944327
vt 0.535631 0.882052
vt 0.741257 0.888872
vt 0.741643 0.896369
vt 0.535245 0.889523
vt 0.852404 0.177040
vt 0.852404 0.213550
vt 0.615174 0.213550
vt 0.615174 0.193886
vt 0.622658 0.193893
vt 0.622658 0.180350
vt 0.615174 0.180344
vt 0.615174 0.177040
vt 0.298440 0.531083
vt 0.335848 0.531008
vt 0.337255 0.497957
vt 0.299798 0.497957
vt 0.011290 0.955199
vt 0.048515 0.955124
vt 0.047272 0.990000
vt 0.010000 0.990000
vt 0.050444 0.732494
vt 0.013286 0.732494
vt 0.295459 0.809590
vt 0.333965 0.809590
vt 0.333954 0.760088
vt 0.296612 0.760088
vt 0.050090 0.806834
vt 0.012918 0.806512
vt 0.334447 0.682268
vt 0.297091 0.681944
vt 0.049023 0.922007
vt 0.011814 0.913037
vt 0.335432 0.576406
vt 0.298039 0.576406
vt 0.656384 0.540116
vt 0.647145 0.540116
vt 0.647145 0.392813
vt 0.656384 0.392813
vt 0.512294 0.984710
vt 0.435212 0.974565
vt 0.331197 0.957571
vt 0.286669 0.945112
vt 0.254353 0.927221
vt 0.258337 0.903068
vt 0.292582 0.919977
vt 0.325245 0.930454
vt 0.439360 0.947599
vt 0.513059 0.956981
vt 0.561997 0.959846
vt 0.561165 0.990000
vt 0.155493 0.594428
vt 0.155493 0.631463
vt 0.131035 0.631463
vt 0.131035 0.594428
vt 0.091348 0.570880
vt 0.110223 0.506733
vt 0.144228 0.393068
vt 0.157650 0.397455
vt 0.167302 0.400609
vt 0.175796 0.403390
vt 0.141792 0.517055
vt 0.122896 0.581262
vt 0.110079 0.631463
vt 0.078510 0.621141
vt 0.095072 0.705272
vt 0.095072 0.743363
vt 0.060241 0.743363
vt 0.061911 0.706910
vt 0.482988 0.850095
vt 0.482988 0.815164
vt 0.364104 0.818273
vt 0.364104 0.853204
vt 0.297331 0.820252
vt 0.297276 0.855184
vt 0.245219 0.823775
vt 0.245219 0.858706
vt 0.485908 0.852459
vt 0.525319 0.852459
vt 0.574404 0.853977
vt 0.648161 0.861464
vt 0.754312 0.874597
vt 0.796325 0.884803
vt 0.831004 0.900937
vt 0.834328 0.876635
vt 0.801555 0.859464
vt 0.756539 0.848360
vt 0.651569 0.834341
vt 0.574404 0.826182
vt 0.376100 0.381741
vt 0.327016 0.377793
vt 0.249851 0.369634
vt 0.144880 0.355615
vt 0.099865 0.344511
vt 0.067092 0.327340
vt 0.070416 0.303038
vt 0.105095 0.319172
vt 0.147108 0.329378
vt 0.253259 0.342511
vt 0.327016 0.349998
vt 0.376100 0.351516
vt 0.415512 0.351516
vt 0.415512 0.378589
vt 0.425629 0.414754
vt 0.508046 0.415203
vt 0.508046 0.562504
vt 0.425629 0.562953
vt 0.057957 0.830303
vt 0.067043 0.830344
vt 0.067043 0.978541
vt 0.057957 0.978582
vt 0.426983 0.806816
vt 0.343417 0.807306
vt 0.343417 0.659026
vt 0.426983 0.659515
vt 0.786450 0.326014
vt 0.793930 0.325776
vt 0.793930 0.460187
vt 0.786450 0.459950
vt 0.837216 0.592641
vt 0.829839 0.592491
vt 0.829839 0.422641
vt 0.837216 0.422491
vt 0.192503 0.643685
vt 0.197542 0.683236
vt 0.338813 0.148673
vt 0.545265 0.166828
vt 0.954822 0.099367
vt 0.744251 0.083979
vt 0.744420 0.080564
vt 0.415512 0.586695
vt 0.376100 0.586695
vt 0.750469 0.073702
vt 0.965379 0.093439
vt 0.191763 0.640755
vt 0.193658 0.521451
vt 0.194527 0.454153
vt 0.232860 0.454387
vt 0.231992 0.521451
vt 0.235858 0.643685
vt 0.235858 0.683236
vt 0.195050 0.402146
vt 0.233384 0.402146
vt 0.230098 0.640755
vt 0.705729 0.313568
vt 0.704085 0.310647
vt 0.535245 0.612005
vt 0.535245 0.757027
vt 0.565384 0.757027
vt 0.769752 0.771079
vt 0.704085 0.271202
vt 0.462524 0.593368
vt 0.472009 0.805681
vt 0.446219 0.807306
vt 0.437047 0.597604
vt 0.460554 0.074289
vt 0.461281 0.065518
vt 0.673176 0.077832
vt 0.672054 0.094799
vt 0.459884 0.082562
vt 0.615174 0.151112
vt 0.824742 0.139269
vt 0.826043 0.156227
vt 0.616434 0.167877
vt 0.814392 0.771079
vt 0.321121 0.488237
vt 0.286325 0.489875
vt 0.286325 0.451785
vt 0.322743 0.451785
vt 0.706702 0.080564
vt 0.704237 0.073702
vt 0.325147 0.320979
vt 0.325147 0.149492
vt 0.288608 0.866802
vt 0.525698 0.866802
vt 0.525698 0.903220
vt 0.288608 0.903220
vt 0.415512 0.631463
vt 0.376100 0.631463
vt 0.769752 0.814157
vt 0.814392 0.814157
vt 0.730490 0.120543
vt 0.939859 0.135905
vt 0.941052 0.110104
vt 0.729358 0.094741
vt 0.660847 0.310647
vt 0.660847 0.271202
vt 0.565384 0.795099
vt 0.667498 0.313568
vt 0.667498 0.551534
vt 0.705729 0.551534
vt 0.315602 0.295763
vt 0.078510 0.295763
vt 0.078510 0.292461
vt 0.078510 0.278926
vt 0.078510 0.259274
vt 0.315602 0.259274
vt 0.339560 0.129034
vt 0.544496 0.147190
vt 0.864095 0.562263
vt 0.871574 0.562026
vt 0.871574 0.697690
vt 0.864095 0.697452
vt 0.576878 0.338835
vt 0.569500 0.338750
vt 0.572243 0.101658
vt 0.607079 0.102061
vt 0.604336 0.339153
vt 0.590646 0.338994
vt 0.126534 0.781556
vt 0.126534 0.789037
vt 0.112765 0.789037
vt 0.112765 0.781556
vt 0.830284 0.814157
vt 0.822988 0.811342
vt 0.920872 0.630070
vt 0.927355 0.633722
vt 0.800684 0.259060
vt 0.733813 0.259769
vt 0.615174 0.261508
vt 0.615180 0.241845
vt 0.615176 0.224999
vt 0.733813 0.223261
vt 0.800456 0.222553
vt 0.852539 0.222132
vt 0.852537 0.258640
vt 0.927839 0.809392
vt 0.918903 0.809590
vt 0.918903 0.675664
vt 0.927839 0.675861
vt 0.215710 0.087948
vt 0.010000 0.069793
vt 0.010713 0.056277
vt 0.214977 0.073394
vt 0.100061 0.502956
vt 0.089929 0.503577
vt 0.089929 0.367923
vt 0.100061 0.368545
vt 0.820755 0.496726
vt 0.807003 0.496057
vt 0.807003 0.325907
vt 0.820755 0.325237
vt 0.158439 0.944236
vt 0.161886 0.937594
vt 0.170906 0.942251
vt 0.167459 0.948894
vt 0.822988 0.601571
vt 0.830469 0.601571
vt 0.830469 0.773051
vt 0.822988 0.773051
vt 0.144693 0.929417
vt 0.157531 0.979677
vt 0.125961 0.990000
vt 0.113143 0.939799
vt 0.094247 0.875593
vt 0.060241 0.761928
vt 0.068735 0.759147
vt 0.078388 0.755993
vt 0.091809 0.751606
vt 0.125815 0.865270
vt 0.688734 0.930009
vt 0.689119 0.937481
vt 0.482721 0.944327
vt 0.483108 0.936829
vt 0.076227 0.905665
vt 0.083709 0.905672
vt 0.083709 0.919206
vt 0.076227 0.919199
vt 0.923470 0.449881
vt 0.930950 0.449881
vt 0.930950 0.620045
vt 0.923470 0.620045
vt 0.284033 0.533367
vt 0.282674 0.500241
vt 0.245219 0.500241
vt 0.246625 0.533292
vt 0.237842 0.955199
vt 0.239132 0.990000
vt 0.201860 0.990000
vt 0.200617 0.955124
vt 0.235846 0.732494
vt 0.198689 0.732494
vt 0.287015 0.811873
vt 0.285862 0.762372
vt 0.248520 0.762372
vt 0.248509 0.811873
vt 0.236214 0.806512
vt 0.199042 0.806834
vt 0.285382 0.684227
vt 0.248028 0.684552
vt 0.237318 0.913037
vt 0.200109 0.922007
vt 0.284435 0.578690
vt 0.247041 0.578690
vt 0.573309 0.412408
vt 0.573309 0.562533
vt 0.516976 0.562953
vt 0.516976 0.411988
vt 0.621488 0.984708
vt 0.572618 0.990000
vt 0.571784 0.959846
vt 0.620722 0.956979
vt 0.694421 0.947593
vt 0.808535 0.930443
vt 0.841195 0.919964
vt 0.875439 0.903054
vt 0.879426 0.927206
vt 0.847110 0.945099
vt 0.802584 0.957560
vt 0.698570 0.974559
vt 0.100685 0.990000
vt 0.076227 0.990000
vt 0.076227 0.952966
vt 0.100685 0.952966
vt 0.277766 0.492159
vt 0.244605 0.490521
vt 0.242935 0.454068
vt 0.277766 0.454068
vt 0.418431 0.353880
vt 0.537316 0.350771
vt 0.537316 0.385702
vt 0.418431 0.388811
vt 0.604144 0.348792
vt 0.604089 0.383723
vt 0.656201 0.345268
vt 0.656201 0.380200
vt 0.559358 0.302823
vt 0.559358 0.167647
vt 0.845825 0.727341
vt 0.845825 0.576370
vt 0.854424 0.576334
vt 0.854424 0.727377
vt 0.854578 0.417408
vt 0.854578 0.567520
vt 0.845825 0.567520
vt 0.845825 0.417408
vt 0.583202 0.558385
vt 0.583202 0.407351
vt 0.638497 0.407807
vt 0.638497 0.557929
vn -0.0000 -1.0000 -0.0000
vn 0.9957 0.0037 -0.0921
vn 0.3884 -0.9208 -0.0352
vn 0.0004 0.0281 -0.9996
vn 0.0008 0.0301 -0.9995
vn 0.0000 0.0000 -1.0000
vn 0.0000 -0.0102 -0.9999
vn 0.0000 -0.0155 -0.9999
vn 0.0007 0.0671 -0.9977
vn 0.0000 0.0261 -0.9997
vn 0.0000 -0.6293 -0.7771
vn 0.0056 -1.0000 -0.0007
vn -0.9973 0.0026 0.0730
vn 0.9973 -0.0041 -0.0736
vn 0.0000 0.0273 -0.9996
vn -0.9989 -0.0002 -0.0467
vn -0.9997 0.0006 -0.0254
vn 0.0000 1.0000 0.0062
vn 0.0000 -0.0273 0.9996
vn 0.0000 -1.0000 -0.0062
vn 0.4022 -0.9155 0.0000
vn 1.0000 0.0000 0.0000
vn 0.0000 1.0000 0.0000
vn 0.0000 -0.0000 1.0000
vn 0.0000 -0.6331 0.7741
vn 0.9863 -0.1456 -0.0774
vn -0.0456 -0.0452 0.9979
vn 0.9976 0.0317 -0.0612
vn 0.0518 0.0880 -0.9948
vn -0.9961 -0.0029 0.0881
vn -0.0432 0.0000 -0.9991
vn -0.0022 0.3525 0.9358
vn -0.0022 0.3558 0.9345
vn -0.0022 0.4622 0.8868
vn -0.0081 -0.3400 -0.9404
vn -0.0085 -0.3375 -0.9413
vn 0.0022 -0.4200 -0.9075
vn -0.0011 -0.0651 -0.9979
vn -0.0011 -0.0655 -0.9979
vn 0.0000 0.0802 0.9968
vn 0.0011 0.0922 0.9957
vn 0.0011 0.0920 0.9958
vn -0.0045 -0.1109 -0.9938
vn 0.0022 0.1186 0.9929
vn -0.0136 -0.1983 -0.9800
vn -0.0119 -0.1793 -0.9837
vn 0.0001 0.1878 0.9822
vn 0.0001 0.1871 0.9823
vn -0.9996 0.0276 0.0008
vn -0.9996 0.0277 0.0008
vn 0.0000 0.9908 -0.1355
vn -0.9988 -0.0158 0.0470
vn -0.9988 -0.0158 0.0471
vn 0.9999 0.0159 0.0000
vn 0.9999 0.0142 0.0004
vn 0.9999 0.0141 0.0004
vn 0.9999 0.0115 0.0009
vn 0.9999 0.0106 0.0009
vn 0.4533 -0.8913 0.0000
vn 0.9999 -0.0153 0.0001
vn -0.9999 -0.0153 0.0001
vn 0.0000 -0.1022 -0.9948
vn 0.0000 0.9922 -0.1247
vn 0.0000 0.1035 0.9946
vn -0.9957 0.0037 -0.0921
vn -0.3884 -0.9208 -0.0352
vn -0.0004 0.0281 -0.9996
vn -0.0008 0.0301 -0.9995
vn -0.0007 0.0671 -0.9977
vn -0.0056 -1.0000 -0.0007
vn 0.9973 0.0027 0.0728
vn -0.9973 -0.0041 -0.0736
vn -0.4022 -0.9155 0.0000
vn -1.0000 0.0000 0.0000
vn 0.0433 0.0002 -0.9991
vn 0.9989 -0.0002 -0.0467
vn -0.9988 -0.0000 0.0486
vn -0.9863 -0.1456 -0.0774
vn 0.0456 -0.0452 0.9979
vn -0.9976 0.0317 -0.0612
vn 0.9988 -0.0158 0.0470
vn 0.9961 -0.0029 0.0881
vn -0.0527 0.0185 0.9984
vn 0.0022 0.3525 0.9358
vn 0.0022 0.4622 0.8868
vn 0.0022 0.3558 0.9345
vn 0.0081 -0.3400 -0.9404
vn -0.0022 -0.4200 -0.9075
vn 0.0085 -0.3375 -0.9413
vn 0.0011 -0.0655 -0.9979
vn 0.0011 -0.0651 -0.9979
vn -0.0011 0.0920 0.9958
vn -0.0011 0.0922 0.9957
vn 0.0045 -0.1109 -0.9938
vn -0.0022 0.1186 0.9929
vn 0.0119 -0.1793 -0.9837
vn 0.0136 -0.1983 -0.9800
vn -0.0001 0.1871 0.9823
vn -0.0001 0.1878 0.9822
vn 0.0000 0.2335 0.9724
vn 0.9996 0.0276 0.0008
vn 0.9996 0.0277 0.0008
vn -0.9999 0.0159 0.0000
vn -0.9999 0.0141 0.0004
vn -0.9999 0.0142 0.0004
vn -0.9999 0.0115 0.0009
vn -0.9999 0.0106 0.0009
vn -0.4533 -0.8913 0.0000
vn 0.0000 0.9794 -0.2021
vn 0.0000 -0.9964 0.0846
vn 0.0000 -0.2325 -0.9726
usemtl None
s 1
f 1/1/1 2/2/1 3/3/1
f 4/4/2 5/5/2 6/6/2 7/7/2
f 1/1/3 4/8/3 7/9/3 2/2/3
f 8/10/4 9/11/4 10/12/5 11/13/5
f 12/14/6 13/15/7 14/16/8 15/17/6
f 11/13/9 10/12/9 16/18/9 17/19/9
f 18/20/10 19/21/10 9/11/4 8/10/4
f 18/20/11 12/14/11 15/17/11 19/21/11
f 20/22/12 21/23/12 22/24/12 23/25/12
f 24/26/13 20/27/13 23/28/13 25/29/13 26/30/13
f 21/31/14 27/32/14 28/33/14 22/34/14
f 29/35/15 30/36/15 31/37/15 32/38/15
f 33/39/16 34/40/16 35/41/16 36/42/16 37/43/16 38/44/16
f 32/45/17 31/46/17 39/47/17 40/48/17
f 41/49/18 29/50/18 32/51/18 40/52/18
f 42/53/19 41/54/19 40/55/19 39/56/19
f 30/57/20 42/58/20 39/59/20 31/60/20
f 36/61/1 43/62/1 44/63/1 37/64/1
f 2/2/21 7/9/21 45/65/21 46/66/21
f 2/67/22 46/68/22 44/69/22 43/70/22
f 7/7/22 6/6/22 47/71/22 45/72/22
f 6/73/23 48/74/23 49/75/23 47/76/23
f 45/77/24 47/78/24 49/79/24 50/80/24
f 5/81/23 51/82/23 48/74/23 6/73/23
f 27/83/23 26/84/23 25/85/23 28/86/23
f 46/87/25 45/77/25 50/80/25 38/88/25
f 46/87/24 38/88/24 37/89/24 44/90/24
f 52/91/1 53/92/1 54/93/1 35/94/1
f 1/95/26 3/96/26 55/97/26 56/98/26
f 57/99/27 58/100/27 59/101/27 60/102/27 61/103/27 1/104/27 53/105/27 52/106/27 62/107/27
f 63/108/1 56/109/1 55/110/1 64/111/1
f 65/112/28 66/113/28 67/114/28 68/115/28
f 53/116/29 1/117/29 56/118/29 63/119/29
f 54/120/30 53/121/30 63/122/30 64/123/30
f 43/124/31 36/125/31 35/126/31 54/127/31 64/128/31 55/129/31 3/130/31 2/131/31
f 69/132/32 70/133/33 71/134/34 72/135/34
f 73/136/35 74/137/36 75/138/37 76/139/37
f 14/16/8 13/15/7 77/140/38 78/141/39
f 51/142/40 5/143/40 79/144/41 80/145/42
f 78/141/39 77/140/38 81/146/43 82/147/43
f 80/145/42 79/144/41 83/148/44 84/149/44
f 82/147/43 81/146/43 85/150/45 86/151/46
f 84/149/44 83/148/44 87/152/47 88/153/48
f 86/151/46 85/150/45 74/137/36 73/136/35
f 88/153/48 87/152/47 70/133/33 69/132/32
f 89/154/1 90/155/1 91/156/1 92/157/1
f 80/158/49 84/159/49 88/160/50 69/161/49 72/162/50 75/163/49 74/164/49 85/165/49 81/166/49 77/167/49 13/168/49 51/169/49
f 76/170/51 75/171/51 72/172/51 71/173/51
f 57/174/52 62/175/52 52/176/52 66/177/52 65/178/53 18/179/52 8/180/52 11/181/52 17/182/52 58/183/52
f 17/184/1 16/185/1 59/186/1 58/187/1
f 19/188/54 1/189/54 61/190/55 9/191/56
f 9/191/56 61/190/55 60/192/57 10/193/57
f 10/193/57 60/192/57 59/194/58 16/195/58
f 19/188/59 15/196/59 4/4/59 1/189/59
f 5/5/60 4/4/60 15/196/60 14/197/60 78/198/60 82/199/60 86/200/60 73/201/60 76/202/60 71/203/60 70/204/60 87/205/60 83/206/60 79/207/60
f 93/208/61 94/209/61 95/210/61 96/211/61 97/212/61 98/213/61 99/214/61 100/215/61 101/216/61 102/217/61 103/218/61 104/219/61 105/220/61 106/221/61
f 107/222/62 89/223/62 92/224/62 108/225/62
f 109/226/63 107/227/63 108/228/63 110/229/63
f 90/230/64 109/231/64 110/232/64 91/233/64
f 65/234/6 68/235/6 111/236/6 112/237/6
f 33/238/1 38/239/1 113/240/1 114/241/1
f 12/14/6 115/242/6 116/243/7 13/15/7
f 52/91/1 35/94/1 117/244/1 118/245/1
f 119/246/1 120/247/1 121/248/1
f 106/221/65 122/249/65 123/250/65 93/208/65
f 119/246/66 121/248/66 122/251/66 106/252/66
f 18/20/11 124/253/11 115/242/11 12/14/11
f 125/254/67 126/255/68 127/256/68 128/257/67
f 115/242/6 105/258/6 104/259/8 116/243/7
f 126/255/69 129/260/69 130/261/69 127/256/69
f 124/253/10 125/254/67 128/257/67 131/262/10
f 113/263/25 38/88/25 50/80/25 132/264/25
f 13/265/23 116/266/23 133/267/23 134/268/23 48/74/23 51/82/23
f 124/253/11 131/262/11 105/258/11 115/242/11
f 132/264/24 50/80/24 49/79/24 135/269/24
f 136/270/70 137/271/70 138/272/70 139/273/70
f 140/274/71 141/275/71 142/276/71 137/277/71 136/278/71
f 139/279/72 138/280/72 143/281/72 144/282/72
f 134/268/23 135/283/23 49/75/23 48/74/23
f 145/284/1 146/285/1 147/286/1 148/287/1
f 121/248/73 149/288/73 150/289/73 122/251/73
f 35/94/1 34/290/1 151/291/1 117/244/1
f 121/292/74 148/293/74 147/294/74 149/295/74
f 122/249/74 150/296/74 152/297/74 123/250/74
f 123/298/23 152/299/23 135/283/23 134/268/23
f 144/300/23 143/301/23 142/302/23 141/303/23
f 150/304/24 132/264/24 135/269/24 152/305/24
f 93/306/23 123/298/23 134/268/23 133/267/23
f 149/307/25 113/263/25 132/264/25 150/304/25
f 149/307/24 147/308/24 146/309/24 113/263/24
f 148/310/75 121/311/75 120/312/75 153/313/75 117/314/75 145/315/75
f 118/245/1 117/244/1 153/316/1 154/317/1
f 155/318/24 156/319/24 67/320/24 66/321/24
f 114/322/76 113/323/76 146/324/76 145/325/76 117/326/76 151/327/76
f 151/328/77 157/329/77 158/330/77 114/331/77
f 119/332/78 159/333/78 160/334/78 120/335/78
f 161/336/79 162/337/79 118/338/79 154/339/79 119/340/79 163/341/79 164/342/79 165/343/79 166/344/79
f 18/345/1 65/346/1 112/347/1 124/348/1
f 167/349/1 168/350/1 160/351/1 159/352/1
f 68/353/1 67/354/1 156/355/1 111/356/1
f 169/357/1 170/358/1 158/359/1 157/360/1
f 112/361/80 111/362/80 156/363/80 155/364/80
f 34/365/6 169/366/6 157/367/6 151/368/6
f 161/369/81 166/370/81 129/371/81 126/372/81 125/373/81 124/374/81 112/375/81 155/376/81 118/377/81 162/378/81
f 153/379/82 168/380/82 167/381/82 154/382/82
f 120/383/83 160/384/83 168/385/83 153/386/83
f 114/387/24 158/388/24 170/389/24 33/390/24
f 171/391/84 172/392/85 98/393/85 97/394/86
f 100/395/87 99/396/88 173/397/88 174/398/89
f 104/259/8 103/399/90 175/400/91 116/243/7
f 133/401/40 176/402/92 94/403/93 93/404/40
f 103/399/90 102/405/94 177/406/94 175/400/91
f 176/402/92 178/407/95 95/408/95 94/403/93
f 102/405/94 101/409/96 179/410/97 177/406/94
f 178/407/95 180/411/98 96/412/99 95/408/95
f 101/409/96 100/395/87 174/398/89 179/410/97
f 180/411/98 171/391/84 97/394/86 96/412/99
f 181/413/100 182/414/100 183/415/100 184/416/100
f 176/417/101 133/418/101 116/419/101 175/420/101 177/421/101 179/422/101 174/423/101 173/424/102 172/425/102 171/426/101 180/427/102 178/428/101
f 99/429/51 98/430/51 172/431/51 173/432/51
f 129/433/1 166/434/1 165/435/1 130/436/1
f 131/437/103 128/438/104 163/439/105 119/440/103
f 128/438/104 127/441/106 164/442/106 163/439/105
f 127/441/106 130/443/107 165/444/107 164/442/106
f 131/437/108 119/440/108 106/221/108 105/220/108
f 66/445/1 52/91/1 118/245/1 155/446/1
f 184/447/109 183/448/109 185/449/109 186/450/109
f 187/451/110 188/452/110 182/453/110 181/454/110
f 186/455/111 185/456/111 188/457/111 187/458/111
